<?xml version="1.0" standalone="no"?>
<!DOCTYPE svg PUBLIC "-//W3C//DTD SVG 1.1//EN" "http://www.w3.org/Graphics/SVG/1.1/DTD/svg11.dtd" >
<svg xmlns="http://www.w3.org/2000/svg">
<metadata>Generated by IcoMoon</metadata>
<defs>
<font id="adobe-stock-icons" horiz-adv-x="1024">
<font-face units-per-em="1024" ascent="768" descent="-256" />
<missing-glyph horiz-adv-x="1024" />
<glyph unicode="&#x20;" horiz-adv-x="0" d="" />
<glyph unicode="&#xe600;" glyph-name="alert_20" d="M917.35-85.35c-8.499 17.101-354.15 699.75-354.15 699.75s-25.6 51.2-51.2 51.2c-25.6 0-51.2-51.2-51.2-51.2s-345.651-691.2-354.15-708.25c-8.55-17.101-8.55-59.75 42.65-59.75s725.402 0 725.402 0c51.2 0 51.2 51.2 42.65 68.25zM512-78.49c-33.894 0-61.44 27.546-61.44 61.44s27.546 61.44 61.44 61.44c33.894 0 61.44-27.546 61.44-61.44s-27.546-61.44-61.44-61.44zM570.88 358.4c0-76.8-14.592-222.515-19.302-243.302 0-2.099-1.536-12.698-8.55-12.698h-62.054c-4.71 0-7.731 9.933-8.909 12.698-2.304 19.405-18.944 166.502-18.944 243.302v70.554c0 2.765 7.885 7.014 13.722 9.114 14.080 4.864 25.856 4.557 43.52 4.557 23.552 0 33.024-1.075 45.978-4.557 5.888-2.099 14.541-7.014 14.541-9.114v-70.554z" />
<glyph unicode="&#xe601;" glyph-name="arrowDown_20" d="M752.998 394.598c-9.984 9.984-23.091 15.002-36.198 15.002s-26.214-5.018-36.198-15.002l-168.602-168.653-168.602 168.653c-9.984 9.984-23.091 15.002-36.198 15.002s-26.214-5.018-36.198-15.002c-19.968-20.019-19.968-52.429 0-72.397l204.8-204.8c10.035-9.984 23.091-15.002 36.198-15.002s26.214 5.018 36.198 15.002l204.8 204.8c19.968 19.968 19.968 52.378 0 72.397z" />
<glyph unicode="&#xe602;" glyph-name="arrowLeft_20" d="M481.946 256l168.653 168.602c9.984 9.984 15.002 23.091 15.002 36.198s-5.018 26.214-15.002 36.198c-20.019 19.968-52.429 19.968-72.397 0l-204.8-204.8c-9.984-10.035-15.002-23.091-15.002-36.198s5.018-26.214 15.002-36.198l204.8-204.8c19.968-19.968 52.378-19.968 72.397 0 9.984 9.984 15.002 23.091 15.002 36.198s-5.018 26.214-15.002 36.198l-168.653 168.602z" />
<glyph unicode="&#xe603;" glyph-name="arrowRight_20" d="M650.598 292.198l-204.8 204.8c-19.968 19.968-52.378 19.968-72.397 0-9.984-9.984-15.002-23.091-15.002-36.198s5.018-26.214 15.002-36.198l168.653-168.602-168.653-168.602c-9.984-9.984-15.002-23.091-15.002-36.198s5.018-26.214 15.002-36.198c20.019-19.968 52.429-19.968 72.397 0l204.8 204.8c9.984 9.984 15.002 23.091 15.002 36.198s-5.018 26.163-15.002 36.198z" />
<glyph unicode="&#xe604;" glyph-name="changeregion_21" d="M512 768c-282.77 0-512-229.23-512-512s229.23-512 512-512c282.77 0 512 229.23 512 512v0c0 282.77-229.23 512-512 512v0zM581.851-152.586c-12.842-2.317-28.462-4.154-44.321-5.104l-1.149-0.055v193.989c50.192-1.198 98.324-6.31 145.179-15.053l-5.566 0.863c-16.217-68.344-49.154-127.433-94.287-174.793l0.144 0.152zM348.006 22.056c41.289 7.879 89.422 12.99 138.529 14.167l1.084 0.021v-193.989c-17.009 1.004-32.63 2.842-47.961 5.518l2.491-0.36c-44.989 47.209-77.926 106.298-93.626 172.077l-0.517 2.566zM442.152 664.586c12.84 2.317 28.459 4.154 44.317 5.104l1.15 0.055v-193.989c-50.188 1.195-98.319 6.307-145.172 15.052l5.562-0.863c16.217 68.344 49.153 127.433 94.287 174.793l-0.144-0.152zM675.991 489.946c-41.291-7.883-89.422-12.995-138.529-14.17l-1.081-0.020v193.989c17.008-1.004 32.627-2.841 47.957-5.518l-2.49 0.36c44.99-47.208 77.926-106.296 93.626-172.075l0.517-2.566zM536.381 426.988c54.394 1.262 106.59 6.92 157.341 16.644l-5.909-0.942c10.699-48.183 17.517-104.040 18.891-161.245l0.020-1.064h-170.342zM487.619 426.988v-146.607h-170.342c1.394 58.27 8.212 114.126 19.975 168.136l-1.064-5.827c44.841-8.782 97.037-14.44 150.325-15.682l1.107-0.020zM268.483 280.381h-170.228c4.744 80.511 31.899 153.852 75.25 214.884l-0.859-1.274c32.765-15.775 71.271-29.737 111.312-39.843l4.325-0.925c-11.373-51.405-18.52-110.914-19.784-171.869l-0.016-0.973zM268.483 231.619c1.281-61.932 8.429-121.444 20.917-178.965l-1.113 6.114c-44.367-11.034-82.872-24.994-119.427-42.39l3.793 1.625c-42.496 59.759-69.653 133.103-74.344 212.49l-0.053 1.126zM317.278 231.619h170.341v-146.607c-54.395-1.263-106.589-6.925-157.339-16.654l5.908 0.942c-10.699 48.186-17.517 104.045-18.891 161.253l-0.020 1.065zM536.381 85.012v146.607h170.342c-1.394-58.273-8.212-114.133-19.975-168.146l1.064 5.827c-44.84 8.786-97.035 14.448-150.323 15.691l-1.108 0.020zM755.517 231.619h170.228c-4.744-80.513-31.901-153.857-75.255-214.889l0.859 1.273c-32.762 15.771-71.267 29.731-111.305 39.839l-4.329 0.926c11.374 51.407 18.522 110.92 19.786 171.878l0.016 0.973zM755.517 280.381c-1.279 61.928-8.425 121.437-20.91 178.956l1.113-6.113c44.365 11.031 82.872 24.992 119.426 42.391l-3.789-1.623c42.491-59.758 69.645-133.1 74.335-212.483l0.053-1.127zM820.163 533.152c-26.93-12.291-58.957-23.513-92.112-31.908l-4.047-0.868c-14.72 53.9-35.762 101.094-62.821 144.123l1.291-2.2c62.358-24.765 115.119-61.936 157.362-108.777l0.328-0.369zM361.527 642.298c-25.767-40.827-46.809-88.021-60.654-138.201l-0.876-3.722c-37.201 9.263-69.229 20.486-99.858 34.265l3.699-1.488c42.569 47.21 95.33 84.38 154.887 108.159l2.801 0.987zM203.831-21.146c26.932 12.293 58.961 23.517 92.118 31.912l4.046 0.868c14.719-53.904 35.762-101.102 62.824-144.132l-1.291 2.2c-62.362 24.765-115.126 61.938-157.37 108.783l-0.327 0.369zM662.474-130.298c25.77 40.83 46.813 88.028 60.657 138.211l0.875 3.721c37.202-9.263 69.232-20.487 99.862-34.268l-3.698 1.488c-42.571-47.214-95.335-84.387-154.897-108.165l-2.8-0.987z" />
<glyph unicode="&#xe605;" glyph-name="checkmark_20" d="M51.2 278.528c0-241.152 196.608-437.76 437.76-437.76 241.664 0 438.272 196.608 438.272 437.76 0 241.664-196.608 438.272-438.272 438.272-241.152 0-437.76-196.608-437.76-438.272v0zM220.16 266.24c23.552 20.48 61.44 19.968 81.408-3.584l90.112-104.448 275.456 330.752c19.456 24.064 57.344 25.6 81.408 6.144 23.552-19.968 29.184-57.344 9.728-81.408l-329.216-396.288c-19.968-24.064-52.224-24.576-72.192-1.024l-144.896 168.448c-19.968 23.552-15.36 61.44 8.192 81.408v0z" />
<glyph unicode="&#xe606;" glyph-name="close_20" d="M584.346 256l168.653 168.602c9.984 9.984 15.002 23.091 15.002 36.198s-5.018 26.214-15.002 36.198c-20.019 19.968-52.429 19.968-72.397 0l-168.602-168.602-168.602 168.602c-19.968 19.968-52.378 19.968-72.397 0-9.984-9.984-15.002-23.091-15.002-36.198s5.018-26.214 15.002-36.198l168.653-168.602-168.653-168.602c-9.984-9.984-15.002-23.091-15.002-36.198s5.018-26.214 15.002-36.198c20.019-19.968 52.429-19.968 72.397 0l168.602 168.602 168.602-168.602c19.968-19.968 52.378-19.968 72.397 0 9.984 9.984 15.002 23.091 15.002 36.198s-5.018 26.214-15.002 36.198l-168.653 168.602z" />
<glyph unicode="&#xe607;" glyph-name="menu_20" d="M870.4 563.2h-716.8c0 0-51.2 0-51.2 51.2s51.2 51.2 51.2 51.2h716.8c0 0 51.2-1.587 51.2-51.2s-51.2-51.2-51.2-51.2zM870.4 256h-716.8c0 0-51.2 0.819-51.2 51.2s51.2 51.2 51.2 51.2h716.8c0 0 51.2 0 51.2-51.2s-51.2-51.2-51.2-51.2zM870.4-51.2h-716.8c0 0-51.2 0.819-51.2 51.2s51.2 51.2 51.2 51.2h716.8c0 0 51.2-0.819 51.2-51.2s-51.2-51.2-51.2-51.2z" />
<glyph unicode="&#xe608;" glyph-name="search_20" d="M563.2 665.6c-197.939 0-358.4-160.461-358.4-358.4 0-71.168 20.992-137.267 56.731-193.024l-187.853-187.853c-30.003-29.952-30.003-78.643 0-108.595 30.003-30.003 78.592-30.003 108.595 0l187.853 187.853c55.808-35.789 121.907-56.781 193.075-56.781 197.939 0 358.4 160.461 358.4 358.4s-160.461 358.4-358.4 358.4zM563.2 40.96c-146.791 0-266.24 119.451-266.24 266.24s119.449 266.24 266.24 266.24 266.24-119.451 266.24-266.24-119.449-266.24-266.24-266.24z" />
<glyph unicode="&#xe609;" glyph-name="clipboard_15" d="M682.667 682.666c0 37.547-30.72 68.267-68.267 68.267h-204.8c-37.547 0-68.267-30.72-68.267-68.267v-136.533h341.333v136.533zM477.184 648.533c0 19.115 15.701 34.816 34.816 34.816s34.816-15.701 34.816-34.816c0-19.115-15.701-34.816-34.816-34.816s-34.816 15.701-34.816 34.816v0zM955.733 546.133c0 37.547-30.72 68.267-68.267 68.267h-136.533v-136.533h-477.867v136.533h-136.533c-37.547 0-68.267-30.72-68.267-68.267v-750.933c0-37.547 30.72-68.267 68.267-68.267h750.933c37.547 0 68.267 30.72 68.267 68.267v750.933zM387.755-23.894c-15.019 15.019-15.019 39.595 0 54.613l202.752 202.752c15.019 15.019 39.595 15.019 54.613 0s15.019-38.912 0-53.931l-203.435-203.435c-15.019-14.336-38.912-14.336-53.931 0v0zM295.595 18.432c-39.595-40.96-46.421-89.429-2.048-133.803s103.083-36.864 139.264 2.048c23.211 25.259 40.277 56.661 47.104 92.843l64.853 47.787c9.557-66.901-18.432-148.821-64.853-195.243-66.219-65.536-172.715-65.536-238.251 0-65.536 66.219-65.536 172.715 0 238.251 46.421 46.421 128.341 74.411 195.243 64.853l-47.787-65.536c-34.816-8.192-70.315-28.672-93.525-51.2v0zM479.232 177.493c-9.557 67.584 19.115 148.821 64.853 195.243 65.536 65.536 172.715 65.536 238.251 0s65.536-172.032 0-238.251c-46.421-45.739-128.341-74.411-195.243-64.853l57.344 68.267c35.499 6.827 61.44 28.672 85.333 51.883 46.421 46.421 32.085 94.208-1.365 126.976-44.373 44.373-98.304 43.008-135.168 6.144l-8.192-8.192c-19.797-23.211-30.72-51.2-37.547-81.237l-68.267-55.979z" />
<glyph unicode="&#xe60a;" glyph-name="delete_32" d="M736 384v-448h-448v448h-64v-448c0-35.36 28.64-64 64-64h448c35.36 0 64 28.64 64 64v448h-64zM384 0v0c-17.664 0-32 14.336-32 32v288c0 17.664 14.336 32 32 32v0c17.664 0 32-14.336 32-32v-288c0-17.664-14.336-32-32-32zM512 0v0c-17.664 0-32 14.336-32 32v288c0 17.664 14.336 32 32 32v0c17.664 0 32-14.336 32-32v-288c0-17.664-14.336-32-32-32zM640 0v0c-17.664 0-32 14.336-32 32v288c0 17.664 14.336 32 32 32v0c17.664 0 32-14.336 32-32v-288c0-17.664-14.336-32-32-32zM832 512h-160c0 70.688-57.312 128-128 128h-64c-70.688 0-128-57.312-128-128h-160c-17.664 0-32-14.336-32-32s14.336-32 32-32h640c17.664 0 32 14.336 32 32s-14.336 32-32 32zM416 512v32c0 17.664 14.336 32 32 32h128c17.664 0 32-14.336 32-32v-32h-192z" />
<glyph unicode="&#xe60b;" glyph-name="download_32" d="M718.064 289.936l-142.064-142.061v492.125h-96v-492.125l-142.064 142.061-67.872-67.872 257.936-257.939 257.936 257.939zM256-32h544v-96h-544v96z" />
<glyph unicode="&#xe60c;" glyph-name="morephotos_32" d="M864 64c17.6 0 32 14.4 32 32v448c0 17.6-14.4 32-32 32h-576c-17.6 0-32-14.4-32-32v-448c0-17.6 14.4-32 32-32h576zM320 512h512v-384h-512v384zM736-64c17.6 0 32 14.4 32 32v32h-576v448h-32c-17.6 0-32-14.4-32-32v-448c0-17.6 14.4-32 32-32h576z" />
<glyph unicode="&#xe60d;" glyph-name="search_32" d="M560 608c-167.894 0-304-136.106-304-304 0-64.87 20.483-124.867 55.104-174.23l-167.635-167.638c-10.314-10.304-15.469-23.818-15.469-37.331s5.155-27.027 15.469-37.331c9.622-9.622 22.029-14.755 34.621-15.398 14.4-0.736 29.040 4.397 40.042 15.398l167.635 167.635c49.363-34.621 109.363-55.104 174.234-55.104 167.894 0 304 136.106 304 304s-136.106 304-304 304zM560 96c-114.874 0-208 93.126-208 208s93.126 208 208 208 208-93.126 208-208-93.126-208-208-208z" />
<glyph unicode="&#xe60e;" glyph-name="settings_32" d="M864 320h-46.944c-14.432 0-26.464 9.824-30.88 23.584-4.96 15.52-11.232 30.464-18.624 44.736-6.528 12.576-4.992 27.776 5.024 37.792l33.568 33.568c12.512 12.512 12.512 32.768 0 45.248l-45.248 45.248c-12.512 12.512-32.768 12.512-45.248 0l-33.568-33.568c-10.016-10.016-25.216-11.552-37.792-5.024-14.24 7.424-29.184 13.664-44.736 18.624-13.728 4.384-23.552 16.416-23.552 30.848v46.944c0 17.664-14.336 32-32 32h-64c-17.664 0-32-14.336-32-32v-46.944c0-14.432-9.824-26.464-23.584-30.88-15.52-4.96-30.464-11.2-44.736-18.624-12.576-6.528-27.776-4.992-37.792 5.024l-33.536 33.568c-12.512 12.512-32.768 12.512-45.248 0l-45.248-45.248c-12.512-12.512-12.512-32.768 0-45.248l33.568-33.568c10.016-10.016 11.552-25.216 5.024-37.792-7.424-14.24-13.664-29.216-18.624-44.736-4.416-13.728-16.448-23.552-30.88-23.552h-46.944c-17.664 0-32-14.336-32-32v-64c0-17.664 14.336-32 32-32h46.944c14.432 0 26.464-9.824 30.88-23.584 4.96-15.52 11.232-30.464 18.624-44.736 6.528-12.576 4.992-27.776-5.024-37.792l-33.568-33.568c-12.512-12.512-12.512-32.768 0-45.248l45.248-45.248c12.512-12.512 32.768-12.512 45.248 0l33.568 33.568c10.016 10.016 25.216 11.552 37.792 5.024 14.24-7.424 29.184-13.664 44.736-18.624 13.728-4.384 23.552-16.416 23.552-30.848v-46.944c0-17.664 14.336-32 32-32h64c17.664 0 32 14.336 32 32v46.944c0 14.432 9.824 26.464 23.584 30.88 15.52 4.96 30.464 11.232 44.736 18.624 12.576 6.528 27.776 4.992 37.792-5.024l33.568-33.568c12.512-12.512 32.768-12.512 45.248 0l45.248 45.248c12.512 12.512 12.512 32.768 0 45.248l-33.568 33.568c-10.016 10.016-11.552 25.216-5.024 37.792 7.424 14.24 13.664 29.184 18.624 44.736 4.384 13.728 16.416 23.552 30.848 23.552h46.944c17.664 0 32 14.336 32 32v64c0 17.664-14.336 32-32 32zM512 112c-79.52 0-144 64.48-144 144s64.48 144 144 144 144-64.48 144-144c0-79.52-64.48-144-144-144z" />
<glyph unicode="&#xe60f;" glyph-name="shoppingcart_32" d="M367.674 122.848c-0.992 1.85-1.341 6.669-1.875 6.669l-0.026-0.026 18.227 46.509h254.8c36.214 0 69.296 17.562 87.267 51.392l121.126 257.974-74.464 34.982-120.189-256.099c-2.733-5.088-7.984-8.25-13.741-8.25h-242.278l-164.57 329.142h-107.706v-82.285h56.867l142.81-285.619-28.65-45.318c-18.563-32.544-12.749-79.955 12.992-105.75 13.606-13.606 37.955-29.626 77.597-29.626 0.938 0 1.875 0 2.838 0.026h338.973v82.285l-341.062-0.026c-3.936 0-14.355-0.266-18.938 4.019zM420.499-64c0-37.872-30.701-68.573-68.573-68.573s-68.573 30.701-68.573 68.573c0 37.872 30.701 68.573 68.573 68.573s68.573-30.701 68.573-68.573zM740.509-64c0-37.872-30.701-68.573-68.573-68.573s-68.573 30.701-68.573 68.573c0 37.872 30.701 68.573 68.573 68.573s68.573-30.701 68.573-68.573zM656 544h-96v96h-80v-96h-96v-80h96v-96h80v96h96z" />
<glyph unicode="&#xe610;" glyph-name="checkmark-plain_20" d="M271.35 271.852c23.552 20.5 61.45 19.999 81.449-3.553l90.102-104.448 275.4 330.752c19.502 24.049 57.4 25.6 81.449 6.149 23.552-20.004 29.153-57.349 9.748-81.403l-329.247-396.298c-19.953-24.049-52.25-24.602-72.151-1.050l-144.901 168.448c-19.999 23.552-15.401 61.45 8.151 81.403v0z" />
<glyph unicode="&#xe611;" glyph-name="changeRegion_42" d="M313.246 24.057c-1.875 0-1.875 0-1.875 1.875v0c0 1.875 0 3.752 0 5.627s0 3.752 0 5.627h-1.875c0 7.5 0 15.004 1.875 20.629s1.875 13.127 1.875 20.629v5.627c0 3.752 0 7.502 0 11.252s0 5.627-1.875 9.377c0 1.875-1.875 1.875-1.875 3.752-1.875 0-1.875 1.875-3.752 1.875-1.875 0-1.875 1.875-3.752 1.875-1.875 0-1.875 1.875-1.875 1.875 0 1.875-1.875 3.752-3.752 5.627-1.875 3.752-3.752 5.627-5.627 9.377-1.875 3.752-3.752 7.5-5.627 9.377-1.875 3.752-1.875 5.627-1.875 5.627 0 1.875 0 5.627 1.875 7.5 0 3.752 1.875 5.627 3.752 9.377 1.875 3.752 1.875 5.627 1.875 7.5 0 1.875 1.875 5.627 0 7.5 0 1.875-1.875 1.875-3.752 3.752s-3.752 3.752-7.502 5.627c-3.752 1.875-5.627 3.752-9.377 5.627-3.752 1.875-7.502 3.752-11.254 3.752-3.752 1.875-5.627 1.875-9.377 3.752-1.875 1.875-5.627 1.875-5.627 3.752 0 0-1.875 1.875-3.752 1.875s-3.747 1.875-5.622 3.75c-1.875 1.875-3.752 1.875-3.752 3.752-1.875 0-1.875 1.875-3.752 1.875s-1.875 1.875-3.752 3.752c0 1.875-1.875 1.875-1.875 3.752s-1.875 1.875-1.875 3.752c0 1.875-1.875 1.875-3.752 3.752 0 0 0 0-1.875 0s-1.875 0-1.875 0c-3.752 0-5.627 1.875-7.502 3.752s-3.752 3.752-5.627 7.502c-1.875 1.875-3.752 5.627-5.627 7.502s-3.752 5.627-5.627 7.5c-1.872 1.87-3.747 3.747-5.622 5.622s-3.752 3.752-3.752 5.627c-1.875 1.875-1.875 3.752-1.875 7.502s0 5.627 0 9.377c0 1.875 0 3.752 0 3.752s0 1.875 0 3.752 1.875 3.752 1.875 5.627 0 3.752 0 5.627c0 1.875 0 3.752-1.875 5.627 0 1.875-1.875 1.875-3.752 3.752-1.875 0-3.752 1.875-3.752 1.875-1.875 0-3.752 0-3.752 1.875 0 0-1.875 0-1.875 1.875l-3.75 3.747c0-1.875-1.875 0-1.875 0l-9.377 9.377c-3.752 1.875-7.502 1.875-11.254 3.752-3.752 1.875-5.627 1.875-9.377 3.752-3.752 1.875-5.627 1.875-7.502 1.875-7.502 0-13.127-1.875-18.756-3.752-5.63-1.875-11.254-5.627-16.879-9.377-5.627-3.752-11.252-7.502-16.879-9.377s-11.252-3.752-18.756-3.752h1.875l-1.875 1.875c0 0 0 1.875 0 5.627h18.756c0 1.875 1.875 3.752 3.752 5.627 1.875 1.875 3.752 1.875 5.627 3.752 1.875 0 3.752 1.875 7.502 3.752 1.875 1.875 3.752 3.752 3.752 5.627-3.752 0-7.502 1.875-9.377 3.752s-3.752 5.627-3.752 9.377c0 1.875 0 5.627 1.875 7.502 0 1.875 1.875 3.752 5.627 7.502l-1.875 1.875c0 0 0 0 0-1.875 0 0 0 0-1.875 0v0c-1.875 0-3.752 0-3.752 1.875s-1.875 3.752-1.875 3.752c0 1.875 0 1.875 0 3.752 0 1.875 1.875 1.875 3.752 1.875-1.875 1.875-3.752 1.875-3.752 3.752-1.875 1.875-1.875 1.875-1.875 3.752 0 1.875 1.875 3.752 3.752 5.627s5.627 3.752 7.502 3.752c1.875 0 5.627 1.875 9.377 3.752 3.752 0 5.627 1.875 7.502 1.875 3.752 0 5.627 0 7.502-1.875s5.627-1.875 7.502-1.875c0 0 1.875 0 1.875 1.875 1.875 0 1.875 1.875 1.875 1.875s0 0 1.875 0 1.875 0 3.752 0h1.875c1.875 0 1.875 0 1.875 0 0-1.875 0-3.752 3.752-3.752 1.875-1.875 5.627-1.875 7.502-1.875 3.752 0 5.627 0 7.502 0s3.752 0 5.627 0 7.502 0 11.254 1.875c1.875 1.875 5.627 1.875 5.627 3.752 1.875 1.875 3.752 3.752 3.752 7.5 1.875 1.875 1.875 5.627 3.752 9.377h1.875c1.875 0 1.875 0 3.752 0s1.875 0 3.752 0 1.875 0 1.875 0h1.875c3.752-1.875 5.627-1.875 9.377-3.752 3.752 0 5.627-1.875 9.377-1.875s5.627-1.875 9.377-1.875c1.875 0 5.627-1.875 9.377-3.752l1.875-1.875c1.875-1.875 3.752-3.752 3.752-3.752 1.875 0 1.875-1.875 1.875-1.875s0-1.875 1.875-1.875c0-1.875 0-3.752 0-7.5 3.752 0 5.627 0 9.377 1.875s3.752 3.752 3.752 7.502h-11.262c0 1.875 0 1.875-1.875 3.752s-1.875 1.87-1.875 1.87-1.875 0-1.875 1.875c0 1.875 0 1.875 0 1.875 0 1.875 0 1.875 1.875 3.752 1.875 1.875 1.875 1.875 3.752 1.875s1.875 1.875 3.752 1.875 1.875 0 3.752 1.875c0 0 0 1.875-1.875 3.752h-13.132c0 1.875 0 3.752 0 5.627s1.875 3.752 3.752 5.627c-1.875 0-1.875 0-3.752 1.875-1.875 0-1.875 1.875-3.752 1.875s-1.875 1.875-3.752 3.752-1.875 1.875-1.875 3.752c0 1.875 0 1.875 1.875 1.875s1.875 0 3.752 0c3.752 0 5.627 0 7.502-1.875s3.752-3.752 3.752-5.627c1.875-1.875 1.875-3.752 3.752-7.5 0-1.875 1.875-5.627 3.752-7.5l1.875 1.875c1.875 1.875 1.875 3.752 0 5.627 0 1.875-1.875 3.752-3.752 5.627-1.875 1.875-3.752 3.752-3.752 5.627s-1.875 3.752-1.875 5.627c0 1.875 0 1.875 1.875 1.875s1.875 0 3.752 0h1.875c0 0 1.875 0 1.875-1.875v-1.875c0 0 0-1.875-1.875-1.875l3.752-1.875c0 5.627 1.875 9.377 3.752 11.252s5.627 3.752 7.502 5.627c1.875 1.875 7.502 1.875 11.252 1.875 3.752 0 7.5 1.875 11.254 3.752h37.508l1.875-1.875 31.883-3.752c0 0 0 0 0-1.875s1.875 0 1.875 0c1.875 0 1.875 0 3.752 0l1.875 1.875c0 0 0 1.875 1.875 1.875s1.875 0 3.752 0 1.875 0 3.752 0 1.875 0 1.875-1.875 1.875 0 1.875-1.875h1.875c0 1.875-1.875 1.875-1.875 3.752 0 0 0 1.875 0 3.752v1.868c0 0 0 0 1.875-1.875 1.875 0 1.875 0 1.875 0s0 0 1.875 0 0 0 1.875 0v3.752c1.875 0 3.752 0 7.502 0 3.752 0 7.5 0 11.254 0 3.752 0 7.5 0 11.254 0 3.752 0 5.627 0 7.5 0 0 0 1.875 0 5.627 0s5.627 0 9.377-1.875c3.752 0 5.627-1.875 7.502-1.875 1.875-1.875 3.752-1.875 3.752-3.752 0 0 0 0 0-1.875l-3.752-3.752c0 0 0 0 0-1.875h18.756c0 0 0 0 1.875 0s0-1.875 0-1.875v0c0-1.875 0-3.752-1.875-3.752s-3.752-1.875-5.627-1.875c-1.875 0-3.752-1.875-5.627-3.752-1.875-1.875-1.875-3.752-1.875-5.627s0-1.875 1.875-1.875l1.875-1.875c-1.875-1.875-1.875-3.752-3.752-5.627 0-1.875-1.875-3.752-1.875-5.627s-1.875-3.752-3.752-5.627c-1.875-1.875-3.752-3.752-5.627-3.752l1.875-1.875c1.875-1.875 1.875-1.875 1.875-3.752 0-1.875 0-3.752 0-3.752h-5.625c0-1.875 0-1.875 0-3.752 0 0 0 0 1.875-1.875s1.875 0 1.875 0l1.875-1.875c0 0-1.875-1.875-5.627-3.752-3.752-1.875-7.5-3.752-11.254-5.627-3.752-1.875-7.502-3.752-11.254-5.627s-5.627-3.752-7.502-3.752l-22.504-37.51c0 0 0 0-1.875 0s-1.875 0-3.752 0c-1.875 0-5.627 0-7.5 1.875-1.875 1.875-5.627 3.752-7.502 5.627s-3.752 3.752-5.627 7.5c-1.875 1.875-1.875 5.627-1.875 7.502s0 3.752 1.875 5.627c1.875 1.875 1.875 3.752 1.875 7.5 0 1.875 0 5.627-1.875 9.377 0 3.752-1.875 5.627-3.752 9.377s-3.752 5.627-3.752 9.377-3.752 3.752-3.752 5.627c0 1.875-3.752 0-7.5 0-3.752 0-7.502 1.875-11.254 1.875-3.752 1.875-7.502 1.875-11.254 3.752-3.752 1.875-5.627 3.752-5.627 5.627s0 1.875 1.875 3.752c1.875 0 1.875 1.875 3.752 1.875s1.875 1.875 3.752 1.875c1.875 0 1.875 0 3.752 0l-1.875 1.875h-1.875c0 0-1.875 0-3.752 0s-1.875 0-3.752 0-1.875 0-1.875-1.875l-1.875-1.875c0 0-1.875-1.875-1.875-3.752s-1.875-1.875-1.875-3.752c0-1.875-1.875-1.875-3.752-1.875v0c0 0 0 1.875-1.875 1.875s0 1.875 0 3.752c0 0-1.875-1.875-1.875-3.752 0-1.875 0-1.875 0-3.752 0-1.875 0-1.875 0-3.752s0-1.875-1.875-3.752c1.875 0 3.752 0 3.752 0 0-1.875 0-1.875 0-3.752 0-1.875 0-1.875 1.875-3.752 1.875-1.875 3.752-1.875 7.502-1.875v-9.362c1.875 0 3.752 0 5.627 0s3.752 0 5.627-1.875c1.875-1.875 3.752-1.875 5.627-1.875 1.875-1.875 1.875-1.875 3.752-3.752v-5.627c0-1.875 1.875-1.875 3.752-3.752 1.875 0 3.752-1.875 5.627-1.875s3.752-1.875 5.627-1.875c1.875 0 1.875-1.875 1.875-3.752 0-1.875 0-3.752-1.875-3.752 0 0-1.875 0-3.752 0s-1.875 0-3.752 0-1.875 0-3.752 0c0-1.875 0-1.875 0-3.752l3.75-3.75c0 0 0-1.875 0-3.752 0-3.752 0-5.627-1.875-7.502s-3.752-1.875-7.5-1.875c0 0 0 0 0-1.875s0-1.875 0-1.875 0-1.875 1.875-3.752c1.875-1.875 1.875-3.752 1.875-3.752s0 0 1.875 1.875l3.75 3.75c0 0 1.875 0 1.875 1.875s0 0 0 0 1.875-1.875 3.752-3.752c1.875-1.875 3.752-5.627 5.627-7.5 1.875-3.752 5.627-7.502 9.377-13.127 0-1.875 0-3.752-1.875-3.752s-1.875 0-3.752-1.875c-1.875 0-1.875 0-3.752-1.875-1.875 0-1.875-1.875-1.875-3.752s0-1.875 1.875-3.752c0-1.875 1.875-1.875 1.875-3.752v-3.74c0 0 0-1.875-1.875-1.875-3.752 0-7.502-1.875-9.377-1.875-1.875-1.875-5.627-3.752-7.502-5.627s-3.752-3.752-5.627-7.502-3.752-5.627-5.627-7.5c0 0 0-1.875 1.875-1.875s0-1.875 0-1.875v0c0-1.875 0-1.875-1.875-3.752-1.875-1.875-3.752-3.752-5.627-3.752s-3.752-3.752-3.752-3.752c-1.875-1.875-1.875-1.875-1.875-3.752 0 0 0-1.875 1.875-1.875 1.875-1.875 1.875-1.875 1.875-1.875s0 0 0-1.875v-1.875c0-1.875 0-1.875 0-3.752s0-1.875 0-1.875v0c0-1.875 0-3.752-1.875-5.627 0-1.875-1.875-3.752-3.752-3.752-1.875 0-1.875 0-3.752 1.875-1.875 1.875-1.875 1.875-3.752 3.752 0 1.875-1.875 3.752-1.875 5.627s0 3.752 0 3.752-1.875 0-3.752 0-3.752 0-3.752 0h-11.254c-5.627 0-9.377-1.875-13.127-3.752-3.75-1.875-5.627-7.502-5.627-15.004 0 0 0-1.875 0-3.752s0-3.752 1.875-3.752c1.875 0 1.875-3.752 1.875-3.752s1.875-1.875 3.752-1.875 1.875 0 3.752 1.875c1.875 1.875 1.875 1.875 1.875 1.875l1.875 1.875c0 0 1.875 1.875 3.752 1.875 0 0 0 0 1.875 0s1.875 0 1.875 0c0-1.875 0-3.752 1.875-5.627 1.875-3.752 1.875-5.627 3.752-9.377 1.875-3.752 3.752-5.627 5.627-7.5s3.752-3.752 5.627-3.752c3.752 0 5.627 0 9.377 1.875 1.875 1.875 5.627 1.875 9.377 1.875 3.752 0 7.502 0 11.254 0s7.502-1.875 11.254-1.875c3.752-1.875 7.502-1.875 11.254-3.752 3.752-1.875 5.627-5.627 9.377-9.377 5.627 1.875 9.377 1.875 11.254 0 1.875-1.875 3.752-1.875 3.752-3.752s1.875-3.752 1.875-7.5c0-3.75 1.875-3.752 3.752-5.627 1.875-1.875 3.752-3.752 7.5-3.752 3.752-1.875 7.502-1.875 13.127-3.752 3.752-1.875 7.5-3.752 11.254-5.627 3.752-1.875 5.627-5.627 5.627-7.5 0-1.875 0-3.752-1.875-5.627 0-1.875-1.875-3.752-3.752-5.627-1.875-1.875-1.875-3.752-3.752-5.627-1.875-1.875-1.875-3.752-3.752-3.752 0-1.875 0-3.752 0-5.627s-1.875-3.752-1.875-5.627c-1.875-1.875-1.875-3.752-3.752-5.627s-1.875-3.752-1.875-3.752-1.875-1.875-3.752-3.752c-1.875 0-3.752-1.875-5.627-1.875s-3.752 0-5.627-1.875c-1.875 0-3.752-1.875-3.752-1.875 0-1.875 0-3.752-1.875-3.752v-3.75c0 0-1.875-1.875-1.875-3.752-7.5 0-9.377 0-11.254-1.875-1.875-1.875-1.875-1.875-3.752-3.752 0-1.875 0-1.875 0-3.752-1.875-1.875-5.627-3.752-7.502-5.627-3.752-3.752-5.627-7.502-9.377-11.252-3.752-3.75-5.627-7.5-9.377-11.252-1.875-3.752-3.752-7.5-5.627-9.377 0 0 0-1.875 1.875-1.875s0-1.875 0-1.875v0 0c0 0 0 0 0-1.875s0-1.875-1.875-1.875c0 0 0-1.875-1.875-1.875s0-1.875 0-1.875c0-1.875 0-1.875 0-3.752 0 0 1.875-1.875 3.752-1.875 1.875 0 1.875-1.875 3.752-1.875 0 0 1.875-1.875 1.875-3.752h-16.879c0 0-1.875 0-1.875 1.875s-1.875 1.875-1.875 1.875v3.75c0 0 0 1.875 0 3.752s0 1.875 0 3.752 0 1.875 0 1.875h-1.875l0.015 0.010zM78.821 224.725v1.875c0 0 0 1.875 1.875 1.875 0 0 1.875-1.875 3.752-1.875 1.875 0 3.752 0 3.752-1.875s3.752 0 3.752 0c1.875 0 1.875 0 3.752 0v-1.875c0-1.875 0-1.875 0-3.752s-1.875-1.875-3.752-1.875c0 0-1.875 0-3.752 0-1.875 0-3.752 0-3.752 1.875s-1.875 1.875-3.752 1.875c-1.875 1.877-1.875 1.877-1.875 3.752v0zM176.34 387.884c0-1.875 0-1.875 0 0 1.875-1.875 1.875-1.875 0 0 1.875 0 1.875 0 0 0v0zM178.217 416.018c0 1.875 1.875 1.875 3.752 3.752 1.875 1.875 1.875 1.875 3.752 1.875s1.875 0 3.752 0 3.752 0 5.627-1.875c0 0 0-1.875 0-5.627v-1.875c0-1.875 0-1.875 0-1.875h-1.88c0 0-1.875 0-3.752 0s-3.752 0-3.752 0h-5.625l-1.875 1.875v1.875c0-0.002 0-0.002 0 1.875v0zM189.469 382.26c1.875 0 1.875 0 3.752 0s1.875 0 3.752 0 1.875 1.875 1.875 1.875v0c0 0-1.875 0-1.875 1.875-1.875 0-1.875 0-1.875 0v0c0 0 0 0-1.875 0 0 0-1.875 0-1.875-1.875-1.88 0.002-1.88-1.875-1.88-1.875s-1.875 0 0 0v0zM191.344 395.386c0-1.875 0-1.875 0 0 3.752-1.875 3.752-1.875 3.752 0s0 1.875-1.875 1.875-1.877 0.002-1.877-1.875v0zM196.971 408.516c0 1.877 0 1.877 0 0 1.875 1.875 3.752 3.752 3.752 3.752l3.75 3.75h1.875c0 0 0 1.875 0 3.752 0 1.875 0 1.875 0 3.752 0 1.875 0 1.875 1.875 3.752 0 1.875 1.875 1.875 1.875 1.875 1.875 0 1.875 0 3.752-1.875s0-1.875 1.875-3.752c1.875-1.875 0-3.752 1.875-3.752 0-1.875 1.875-3.752 3.752-3.752 1.875-1.875 3.752-1.875 3.752-1.875h1.875c0 0 0 0 0-1.875s0-1.875-1.875-3.752c0-1.875-1.875-1.875-3.752-3.752v0h-7.502c0 0-1.875 0-3.752 0s-3.752 0-5.627 0c-1.875 0-3.752 0-5.627 1.875-1.872-1.872-1.872 0.002-1.872 1.877 0 1.877 0 0 0 0v0zM206.346 239.729c0 0 1.877 0 0 0 1.875-1.875 3.752-1.875 3.752 0s0 1.875-1.875 1.875c-1.877 0-1.877 0-1.877-1.875v0zM210.098 237.854c0 0 0-1.875 0 0 1.875 0 1.875 0 1.875 0s0 0-1.875 0c0 1.875 0 1.875 0 0zM211.975 416.018c-1.875 0-1.875 0 0 0 0-1.875 0-1.875 0-1.875s0-0.002 0 1.875v0zM245.731 397.261c0-1.875 0-1.875 1.875-1.875s1.875 0 1.875 1.875-1.872 1.875-3.75 0c0 1.875 0 1.875 0 0v0zM258.857 386.009c1.875-1.875 1.875-1.875 3.752-3.752 1.875-1.875 3.752-1.875 5.627-3.752 1.875-1.875 1.875-1.875 1.875-1.875v0c0 0 0 0 0 1.875s0 1.875 0 3.752l-3.75 3.75c0 0 0 1.875 0 3.752s0 1.875 0 3.752 1.875 1.875 1.875 3.752c0 0 1.875 1.875 1.875 3.752s1.875 1.875 1.875 3.752c-1.875 0-5.627 0-5.627 1.875-1.875 0-3.752 1.875-3.752 1.875-1.875 0-1.875 1.875-3.752 1.875s-1.875 1.875-3.752 1.875c0 0 0-1.875 0-3.752 0-1.875-1.875-1.875-1.875-3.752 0 0 0 0 0-1.875 0 0 0 0 1.875 0h1.875c0 0 1.875 0 3.752 0 1.875 0 1.875 0 3.752 0 1.875 0 1.875 0 1.875 0v-1.875c0 0 0 0 0-1.875s0 0 0 0 0 0-1.875-1.875c-1.875-1.875-1.875-1.875-1.875-1.875l-1.875-1.875c0 0 0 0 0-1.875-3.75-3.755-3.75-3.755-1.875-5.63v0zM249.483 380.382c0-1.875 0-1.875 0 0 1.875-1.875 3.752-1.875 3.752 0s0 1.875-1.875 1.875c-1.877 0.002-1.877 0.002-1.877-1.875v0zM251.355 427.269c0-1.875 0-1.875 0 0 1.875-1.875 3.752-1.875 3.752 0s0 1.875-1.875 1.875c-1.877 0.002-1.877-1.875-1.877-1.875v0zM253.233 425.394c0-1.875 0-1.875 1.875-1.875s1.875 0 1.875 1.875c0.002 0 0.002 1.875-3.75 0 0 1.875 0 0 0 0v0zM256.985 416.018c1.875 0 1.875-1.875 3.752-1.875 0 0 1.875 1.875 3.752 3.752 1.875 1.875 3.752 1.875 5.627 3.752 1.875 1.875 3.752 1.875 3.752 3.752 1.875 1.875 1.875 1.875 1.875 3.752-1.875 0-3.752 0-5.627-1.875-1.875 0-3.752-1.875-5.627-3.752-1.875-1.875-3.752-1.875-5.627-3.752-1.875-1.875-3.752-1.875-5.627-3.752 1.875 1.872 3.75 1.872 3.75-0.002zM258.857 440.396c0-1.875 0-1.875 1.875-1.875s1.875 0 1.875 1.875c0.002 1.877 0.002 1.877-3.75 0 1.877 1.877 0 1.877 0 0v0zM264.485 331.623c1.875-1.875 5.627-3.752 9.377-3.752 3.752-1.875 5.627-3.752 9.377-5.627s5.627-3.752 7.5-5.627c0 0 0 3.752 0 7.502s0 7.5 1.875 11.252c0 3.752 1.875 7.5 1.875 11.252s1.875 3.752 1.875 3.752h16.879c-1.875 1.875-3.752 1.875-5.627 3.752-1.875 1.875-3.752 1.875-5.627 1.875s-3.752 1.875-3.752 1.875c-1.875 0-1.875 1.875-1.875 5.627v1.875c0 0 1.875 1.875 3.752 1.875s3.752 0 3.752 0v3.752c0 0 0 1.875 0 3.752s0 1.875-1.875 1.875c-1.875 0-1.875 0-1.875 0h-16.879c0-3.752-1.875-7.5-3.752-11.252-1.875-3.752-5.627-5.627-7.5-9.377-1.875-1.875-5.627-5.627-7.5-9.377s-3.752-7.502-3.752-11.254c0.002 0 1.877-1.875 3.752-3.75v0zM260.735 414.14c0-1.875 0-1.875 1.875-1.875s1.875 0 1.875 1.875c0.002 0 0.002 0-3.75 0 1.877 0 0 0 0 0v0zM266.359 356.004c0 0 1.877 0 0 0 1.875-1.875 3.752-1.875 3.752 0s0 1.875-1.875 1.875c0 1.875-1.877 0-1.877-1.875zM275.739 412.265c0 0-1.875 0-3.752 0s-1.875 0-3.752 0c0 0-1.875 0 0 0 0 0 1.875 0 3.752 0 1.875-1.875 3.752-1.875 3.752 0v0zM271.987 434.771c0 1.875 1.875 3.752 1.875 5.627s1.875 3.752 1.875 5.627h-3.752v-11.254zM279.489 401.014l1.875-1.875c0 0 1.875 0 1.875-1.875s1.875 0 1.875 0 1.875 0 1.875 1.875c0 1.875 0 1.875 0 1.875l-9.377 1.875c0-1.875 0-1.875 1.877-1.875v0zM286.991 395.386c0-1.875 0-1.875 0 0 1.875-1.875 3.752-1.875 3.752 0s0 1.875-1.875 1.875-1.877 0.002-1.877-1.875zM296.368 215.348c-1.875 0-1.875 0-3.752 0s-1.875 0-3.752 1.875c0 0-1.875 1.875-1.875 3.752h16.879c1.875-1.875 3.752-3.752 5.627-3.752s5.627-1.875 9.377-1.875 5.627-1.875 7.5-1.875 3.752-1.875 3.752-5.627h-18.756c0 0 0 0 0 1.875s0 0-1.875 0v0c0 0 0 0-1.875 0l-1.875-1.875c-1.875 0-3.752 0-3.752 1.875-1.875 1.875-1.875 3.752 0 5.627-3.752 0-3.752 0-5.627 0h0.005zM313.246 346.627c0-1.875 0-1.875 1.875-1.875s1.875 0 1.875 1.875 0 1.875-3.75 0c0 1.875 0 1.875 0 0zM316.996 344.752c0 0 1.875-1.875 0 0 1.875-1.875 3.752-1.875 3.752 0s0 1.875-1.875 1.875c-0.002 0-1.877 0-1.877-1.875zM318.871 434.771c0-1.875 1.877-1.875 0 0 1.875-1.875 3.752-1.875 3.752 0s0 1.875-1.875 1.875c-1.877 0.002-1.877 0.002-1.877-1.875zM326.373 438.521c0-1.875 1.877-1.875 0 0 1.875-1.875 3.752-1.875 3.752 0s0 1.875-1.875 1.875c-1.877 0-1.877 0-1.877-1.875zM326.373 327.873c0-1.875 0-1.875 1.875-1.875s1.875 0 1.875 1.875c0.002 1.877 0.002 1.877-3.75 0 1.877 1.877 0 1.877 0 0zM333.875 442.273l1.875 1.875h-1.875v-1.875zM429.522 365.381c0 0 1.875 1.875 3.752 1.875 1.875 0 3.752 0 3.752-1.875 1.875 0 1.875-1.875 3.752-1.875s3.752 0 3.752 1.875c0 1.875 1.875 1.875 3.752 1.875 1.875 0 3.752-1.875 3.752-3.752 0-1.875 1.875-3.752 1.875-5.627s-1.875-3.752-3.752-3.752c-1.875 0-3.752-1.875-5.627-1.875h-3.752c-1.875 0-3.752 0-3.752 0-1.875 0-1.875 0-3.752 0l-1.875 1.875c0 1.875-1.875 1.875-1.875 5.627s-0.002 5.63-0.002 5.63v0zM513.914 142.207v0c-1.875 1.875-1.875 3.752-1.875 5.627s-1.875 1.875-1.875 3.752c0 1.875-1.875 1.875-1.875 3.752-1.875 3.752-3.752 5.627-5.627 7.5-1.875 1.875-3.752 3.752-5.627 3.752s-3.752 1.875-7.5 1.875c-1.875 0-5.627 0-7.502 0-3.752 0-7.502 0-11.254 1.875s-7.5 1.875-13.127 3.752c-5.627 3.752-11.254 7.5-16.879 13.127-3.752 5.627-7.502 11.252-7.502 18.756 0 7.5 0 13.127 1.875 15.004s1.875 5.627 3.752 5.627c1.875 1.875 3.752 1.875 5.627 3.752 1.875 1.875 3.752 3.752 5.627 7.5 0 0 0 0 0 1.875v5.625c0 1.875 1.875 1.875 3.752 3.752 1.875 1.875 3.752 3.752 3.752 5.627s3.752 3.752 3.752 5.627c0 1.875 1.875 3.752 1.875 5.627 0 0 0 1.875-1.875 1.875 0 1.875-1.875 1.875-1.875 3.752s-1.875 1.875-1.875 3.752c0 1.875-1.875 1.875-1.875 1.875v0c0 3.752 0 7.502 1.875 9.377s1.875 1.875 3.752 3.752c1.875 0 3.752 0 5.627 0s3.752 0 5.627 0 3.752 0 3.752 1.875 1.875 3.752 1.875 5.627c0 0 0 0 0 1.875s0 1.875-1.875 1.875c-1.875 3.752-3.752 7.502-3.752 11.252 0 5.627-1.875 9.377-1.875 13.127 0-1.875 0-3.752-1.875-5.627s-1.875-1.875-3.752-3.752c-1.875 0-3.752-1.875-3.752-1.875-1.875 0-3.752 0-5.627 0 0 3.752 0 5.627 0 5.627 0 1.875 1.875 1.875 1.875 3.752 1.875 0 1.875 1.875 3.752 1.875 1.875 0 1.875 1.875 3.752 1.875 0 0 1.875 1.875 1.875 3.752s0 1.875 0 3.752 0 1.875 1.875 3.752c0 1.875 1.875 1.875 3.752 1.875 0 0 1.875 0 3.752-1.875 1.875-1.875 3.752-3.752 3.752-5.627 1.875-1.875 1.875-3.752 3.752-7.502 1.875-1.875 1.875-3.752 1.875-3.752 0-5.627-3.752-7.502-9.377-7.502v0c0-1.875 0-1.875 1.875-1.875 0 0 1.875 0 3.752 0 1.875 0 3.752 0 5.627 1.875s3.752 1.875 5.627 3.752c1.875 1.875 3.752 3.752 3.752 3.752s3.752 1.875 3.752 3.752c1.875 0 1.875 1.875 3.752 1.875s1.875 0 1.875 1.875c0 1.875 1.875 1.875 1.875 1.875s0 1.875 0 3.752v0c-1.875 1.875-1.875 3.752-3.752 3.752s-1.875 1.875-1.875 3.752-1.875 3.752-1.875 3.752c0 1.875 0 3.752 0 5.627 0 0 0 1.875 0 3.752 0 0 0 1.875 1.875 1.875 0 1.875 1.875 1.875 1.875 3.752 0 1.875 1.875 1.875 1.875 3.752l1.875 1.875c1.875 0 3.752 0 5.627 0 1.875 1.875 3.752 3.752 3.752 5.627 1.875 1.875 1.875 3.752 3.752 7.5 1.875 1.875 1.875 3.752 1.875 3.752 1.875 1.875 3.752 3.752 5.627 5.627s5.627 1.875 7.5 3.752c1.875 0 5.627 1.875 7.502 1.875s5.627 0 7.5 0c1.875 0 5.627 0 9.377 0 3.752 0 7.5 0 11.252-1.875 3.752 0 7.5-1.875 9.377-3.752 3.752-1.875 3.752-3.752 3.752-7.5 0-1.875 0-3.752-1.875-3.752s-3.752-1.875-5.627-1.875c0-1.875 1.875-1.875 1.875-1.875v0c3.752 0 7.5 1.875 9.377 3.752 3.752 1.875 3.752 5.627 5.627 9.377 0 0 0 0 1.875 0h1.875c1.875 0 1.875 0 3.752-1.875 1.875 0 1.875-1.875 3.752-1.875v0l3.752 1.875c1.875 0 1.875 0 5.627 1.875 1.875 0 3.752 0 3.752 0h1.875c0 0 1.875 0 3.752 0s1.875 0 3.752 0 1.875 0 1.875 0c1.875 0 1.875-1.875 1.875-1.875s0 1.875 1.875 1.875c1.875 0 1.875 1.875 1.875 3.752 0 1.875 1.875 1.875 1.875 1.875s1.875 0 1.875 1.875v0h1.875c0 0 1.875-1.875 3.752-1.875 1.875 0 1.875-1.875 3.752-1.875s1.875 0 1.875 0 3.752 1.875 3.752 3.752 1.875 1.875 1.875 3.752c0 1.875 1.875 1.875 1.875 3.752 1.875 0 3.752 1.875 5.627 1.875s3.752 0 3.752 0 1.875-1.875 3.752-1.875 1.875-1.875 3.752-1.875 1.875-1.875 3.752-1.875c0 0 1.875 0 3.752 1.875 1.875 0 1.875 1.875 3.752 1.875 0 0 0 0 1.875 0h3.75c0 0 1.875 0 1.875-1.875 0 3.752 1.875 7.502 5.627 9.377 1.875 1.875 5.627 3.752 9.377 5.627 3.752 1.875 7.502 1.875 11.252 1.875 3.752 0 7.5 1.875 11.252 1.875s7.502 1.875 11.252 3.752c3.752 1.875 5.627 3.752 7.5 7.502v0 0l-3.774-1.899c0 0 0 0-1.875 0 0 0 0 0-1.875 1.875s-1.875 1.875-3.752 3.752c-1.875 1.875-1.875 1.875-3.752 3.752s-1.875 1.875-1.875 1.875v0c0 0 0 0 1.875 1.875s1.875 0 1.875 0h-9.377c0 1.875 1.875 3.752 3.752 3.752s3.752 1.875 5.627 1.875c1.875 0 3.752-1.875 5.627-3.752 1.875-1.875 3.752-3.752 5.627-7.5 1.875-1.875 3.752-5.627 5.627-7.5s3.752-3.752 3.752-3.752l16.879-5.627c1.875-1.875 3.752-1.875 3.752-3.752s0-3.752 1.875-5.627c0-1.875 1.875-1.875 3.752-1.875 1.875 0 3.752-1.875 5.627-1.875s3.752 0 5.627-1.875c1.875 0 3.752 0 3.752 0s1.875 0 3.752 0c1.875 0 3.752 0 5.627 0s3.752 0 5.627 0 3.752 0 3.752 0 0 0 1.875 0c0 0 0 0 0-1.875 0 0 1.875-1.875 3.752-3.752 1.875-1.875 1.875-3.752 3.752-3.752h1.875c3.752 0 9.377 0 15.004 1.875s9.377 1.875 15.004 1.875 9.377 0 13.127-1.875 7.502-1.875 11.252-3.752c3.752-1.875 7.5-3.752 11.252-3.752s7.5-1.875 13.127-3.752c1.875 0 5.627 0 9.377-1.875 3.752 0 7.5 0 9.377-1.875 3.752 0 7.502 0 9.377-1.875 3.752 0 5.627 0 9.377 0 1.875-1.875 3.752-3.752 7.5-3.752s7.5-1.875 9.377-1.875c3.752-1.875 5.627-1.875 9.377-3.752 1.875-1.875 3.752-3.752 3.752-7.5 0 0 0-1.875-1.875-1.875 0-1.875-1.875-1.875-3.752-3.752-1.875-1.875-1.875-1.875-3.752-3.752-1.875 0-1.875-1.875-1.875-1.875-1.875 0-3.752 0-5.627 1.875s-3.752 1.875-5.627 1.875-3.752 0-5.627-1.875-1.875-11.254-3.752-15.004c-1.875-3.752-3.752-3.752-5.627-5.627s-3.752-3.752-5.627-3.752c0 0-1.875 0-3.752 0-1.875 0-3.752 0-5.627-1.875-1.875 0-3.752 0-5.627-1.875-1.875 0-1.875 0-3.752 0-1.875 0-3.752-1.875-3.752-1.875 0-1.875-1.875-3.752-1.875-3.752 0-1.875 0-3.752-1.875-5.627s-1.875-3.752-1.875-5.627c0 0-1.875-1.875-1.875-3.752-1.875-1.875-1.875-1.875-3.752-3.752-1.875-1.875-1.875-1.875-3.752-1.875l-1.875-1.875h-3.75c0 1.875 0 3.752 0 3.752 0 1.875 0 1.875 0 3.752 0 1.875 0 1.875 0 3.752 0 1.875 0 1.875 0 1.875s0 1.875 0 3.752c0 1.875 0 1.875 0 3.752 0 1.875 0 1.875 1.875 3.752s0 1.875 1.875 3.752c1.875 1.875 0 1.875 0 3.752-1.875 0-3.752 0-5.627 0s-1.875 0-3.752 0c-1.875 0-1.875 0-3.752-1.875-1.875 0-1.875-1.875-3.752-3.752h-18.756l-9.377-9.377c0 0 0-1.875 1.875-1.875 0 0 1.875 0 3.752 0 1.875 0 1.875 0 3.752 0 1.875 0 1.875 0 1.875 0 0-3.752 0-5.627 1.875-7.502 0-1.875 1.875-3.752 1.875-7.5 0-5.627 0-9.377-1.875-13.129s-3.752-7.502-5.627-11.254c3.752-1.875 3.752-5.627 5.627-7.502 0-1.875 1.875-5.627 1.875-7.5 0 0 0-1.875 0-3.752s0-1.875 0-1.875l-1.875-1.875c0 0-9.377-5.627-11.252-5.627-1.875-1.875-1.875-1.875-3.752-3.752-1.875-1.875-1.875-1.875-1.875-1.875v-1.875c0 0 0-1.875-1.875-1.875v0c-1.875 0-3.752 0-3.752 1.875s-1.875 3.752-1.875 5.627 0 3.752 1.875 5.627c1.875 1.875 1.875 1.875 3.752 3.752 1.875 1.875 3.752 1.875 3.752 3.752 0 1.875 1.875 3.752 1.875 5.627s0 3.752 0 3.752c0 1.875 0 3.752-1.875 5.627s-1.875 3.752-1.875 5.627c0 1.875 0 3.752 0 5.627v1.875l1.875 1.875c0 0 1.875 1.875 1.875 3.752s0 1.875 0 3.752c0 0 0 0 0 1.875v1.875c-1.875-3.752-3.752-5.627-5.627-9.377s-3.752-7.502-7.502-9.377l-1.875-1.875v-5.627c-3.752-1.875-5.627-3.752-7.5-5.627-1.875-1.875-1.875-5.627-1.875-7.5 0-1.875 0-3.752-1.875-5.627 0-1.875-1.875-1.875-5.627-1.875-1.875 0-3.752 0-3.752 1.875s-1.875 1.875-1.875 3.752c0 1.875 0 3.752-1.875 3.752s-1.875 1.875-3.752 1.875v0c0 0-1.875 0-3.752-1.875-1.875 0-1.875 0-1.875 0v0-1.875c0 0 0 0 1.875 0 0 0 0 0 1.875 0s0 0 0-1.875c0-1.875 0-3.752-1.875-3.752s-1.875-1.875-1.875-3.752 0-3.752 1.875-5.627c0-1.875 1.875-3.752 1.875-5.627 0-3.752-1.875-7.5-3.752-11.252-1.875-1.875-5.627-5.627-7.502-7.5-3.752-1.875-7.5-3.752-9.377-3.752-3.752-1.875-7.5-1.875-9.377-3.752 0 0 0 0-1.875-1.875 0-1.875 0-1.875 0-1.875l-1.875-1.875h-1.875v7.5h-3.75c0-1.875-1.875-1.875-1.875-3.752 0 0 0-1.875-1.875-1.875v-1.875l9.377-11.252c0 0 0-1.875 0-3.752s-1.875-3.752-3.752-5.627-3.752-3.752-3.752-5.627c-3.752-5.627-3.752-7.5-3.752-7.5v0 0c-1.875 1.875-1.875 1.875-3.752 3.752 0 1.875-1.875 1.875-1.875 1.875l-1.875 1.875c0 0-1.875 1.875-3.752 3.752v-5.627c0 0 1.875-1.875 3.752-3.752s1.875-3.752 3.752-5.627c1.875-1.875 1.875-3.752 3.752-5.627 0-1.875 1.875-3.752 1.875-5.627v0l-1.875-1.875c0-3.752 1.875-5.627 3.752-7.5s3.752-3.752 7.5-3.752c3.752-1.875 5.627-1.875 9.377-3.752 1.875-1.875 5.627-1.875 5.627-5.627 0 0-1.875 0-3.752 0-1.875 0-3.752 0-3.752 0-3.752 0-9.377 1.875-13.127 3.752-3.75 1.875-9.377 5.627-13.127 7.5s-7.5 7.502-9.377 11.252c-1.877 3.75-3.752 9.377-3.752 13.127 1.875 0 3.752 0 3.752-1.875 0 0 1.875-1.875 3.752-1.875h1.875c0 1.875-1.875 5.627-1.875 11.252-1.875 5.627-3.752 9.377-5.627 15.004s-5.627 9.377-7.502 13.127c-3.752 3.752-5.627 5.627-9.377 5.627-1.875 0-3.752 0-3.752 0l-5.625-5.625c0 0-1.875 0-3.752 0s-1.875 0-3.752 0c-1.875-1.875-3.752-3.752-5.627-5.627s-1.875-5.627-3.752-7.5c-1.875-1.875-1.875-5.627-3.752-7.5-1.875-1.875-3.752-3.752-5.627-3.752 0 0 0 0-1.875 0v0 1.875c0 0 0 1.875-1.875 3.752s0 1.875-1.875 3.752c-1.875 1.875 0 1.875 0 1.875s0 0 0 1.875c0 0 0 1.875-1.875 1.875l-1.875 1.875c0 0 0 0 0 1.875 0 0 0 1.875 0 3.752s0 3.752 0 5.627 0 3.752 0 5.627c0 1.875 0 1.875 0 3.752 0 0 0 1.875-1.875 3.752 0 1.875-1.875 1.875-1.875 3.752s-1.875 1.875-1.875 3.752l-1.875 1.875c0 0 0 0-1.875 1.875v0h-22.504c0 0 0-1.875-1.875-1.875s-1.875 0-3.752 0-1.875 0-3.752 0-1.875 0-1.875 0 0 0 0-1.875v-1.875l3.75-3.75c0-1.875 0-3.752-3.752-7.5-3.752-3.75-7.5-5.627-11.252-9.377-3.752-3.752-9.377-5.627-13.127-7.5-3.752-1.875-7.5-3.752-9.377-3.752h15.004c0-5.627-1.875-11.252-3.752-15.004-1.875-3.752-7.5-7.502-11.252-11.252-3.752-3.752-7.502-7.502-11.252-11.252s-3.752-7.502-3.752-11.252c0-3.752 0-5.627 1.875-9.377 1.875-1.875 1.875-5.627 1.875-9.377 0-3.752 0-5.627-1.875-7.5-1.875-1.875-3.752-3.752-5.627-5.627s-3.752-1.875-5.627-3.752c-1.875-1.875-3.752-1.875-3.752-3.752 0 0 0 0 0-1.875s0-1.875 0-1.875v-3.75c0-1.875 0-1.875-1.875-3.752 0-1.875-1.875-1.875-1.875-3.752s-1.875-1.875-1.875-3.752c0-1.875-1.875-1.875-1.875-3.752-1.875-3.752-3.752-5.627-3.752-7.5s-3.752-1.875-3.752-3.752c-1.875 0-1.875-1.875-3.752-1.875s-1.875-1.875-3.752-5.627h-9.377c-5.627 0-9.377 0-11.252 1.875-1.872 1.875-5.627 3.752-5.627 5.627-1.875 1.875-1.875 5.627-1.875 7.5 0 3.752 0 5.627-1.875 9.377 0 3.752 0 5.627-1.875 9.377 0 3.752-1.875 5.627-3.752 9.377v31.883l0.012-0.020zM581.43 211.598c1.875-3.752 3.752-5.627 5.627-9.377 1.875-3.752 3.752-5.627 7.502-7.5s3.752-3.752 5.627-5.627v1.875c0 3.752 0 5.627-1.875 9.377-1.875 3.752-3.752 5.627-5.627 7.5-1.875 1.875-5.627 5.627-7.5 7.5-1.875 1.875-3.752 5.627-5.627 7.502v-3.752c-0.002-1.872-0.002-5.625 1.872-7.497v0zM596.431 100.947c0 0 0 1.875 0 3.752s0 3.752 1.875 5.627c0 1.875 0 3.752 1.875 5.627s0 1.875 0 3.752c1.875-1.875 3.752-1.875 3.752-1.875s1.875 0 1.875 1.875c0 0 0 1.875 1.875 1.875l1.875 1.875c1.875 0 3.752 0 3.752-1.875s0-1.875 0-3.752 0-3.752 0-7.5-1.875-5.627-1.875-9.377-1.875-5.627-3.752-9.377c-1.875-1.875-3.752-3.752-5.627-3.752s-1.875 0-1.875 1.875-1.875 1.875-1.875 3.752c0 1.875 0 1.875 0 3.752-1.875 1.872-1.875 1.872-1.875 3.745v0 0 0zM632.064 406.638c1.875 3.752 5.627 5.627 9.377 7.5 3.752 1.872 7.5 3.752 13.127 3.752s9.377 1.875 13.127 1.875c0-1.875-1.875-3.752-3.752-5.627-1.875-1.875-5.627-1.875-9.377-3.752-3.752-1.875-5.627-1.875-9.377-3.752-3.752-1.875-5.627-3.752-5.627-7.502 0-1.875 0-3.752 0-3.752 0-1.875 0-1.875 0-3.752l-1.875-1.875c0 0-1.875 0-3.752 0-1.875 0-3.752 0-3.752 0v1.88c-1.875 7.502 0 11.254 1.875 15.002l0.007 0.005zM744.587 159.086c0-1.875 0-1.875 0 0 1.875-1.875 3.752-1.875 3.752 0s0 1.875-1.875 1.875c-1.877 0-1.877 0-1.877-1.875v0zM746.467 427.269c0-1.875 0-1.875 0 0 1.875-1.875 3.752-1.875 3.752 0s0 1.875-1.875 1.875c-1.877 0.002-1.877-1.875-1.877-1.875v0zM746.467 157.211c0-1.875 0-1.875 1.875-1.875s1.875 0 1.875 1.875c-1.875 1.875-1.875 1.875-3.75 0 0 1.875 0 1.875 0 0v0zM767.093 155.336c1.875 1.875 3.752 3.752 7.5 3.752 1.875 1.875 5.627 3.752 7.5 3.752 1.875 1.875 3.752 1.875 3.752 1.875 1.875 0 1.875 0 1.875-1.875s0-1.875 0-3.752c0-3.752-1.875-7.5-3.752-9.377-1.875-1.877-3.752-7.5-5.627-9.377h-3.752c-3.752 0-7.5 1.875-9.377 3.752-1.877 1.875-3.752 5.627-3.752 9.377 3.752 0 3.752 0 5.627 1.875h0.007zM830.857 50.313c-1.875 0-1.875 1.875-3.752 3.752-1.875 1.875-3.752 1.875-5.627 3.752-1.875 1.875-3.752 1.875-5.627 1.875 0 0-1.875 0-3.752 0-1.875 0-3.752 0-3.752 0s-1.875-1.875-3.752-1.875c-1.875 0-3.752-1.875-7.502-1.875-1.875 0-5.627-1.875-7.5-1.875s-3.752 0-5.627 0h-1.875c0 3.752 0 5.627-1.875 9.377-1.875 1.875-1.875 5.627-3.752 7.5-1.875 1.872-1.875 5.627-3.752 7.5-1.875 1.875-1.875 5.627-1.875 9.377 0 1.875 0 3.752 0 3.752 0 1.875 0 3.752 1.875 3.752 3.752 0 7.5 1.875 11.252 3.752s7.5 3.752 11.252 7.5c3.752 1.875 7.5 3.752 9.377 5.627s3.752 1.875 5.627 1.875v0c0 0 0 0 1.875 0 0 0 0 0 0-1.875l5.627 7.5h16.879c1.875 0 1.875 0 1.875-1.875s0-1.875 0-3.752 0-1.875 0-3.752 0-1.875 1.875-1.875c0 5.627 3.752 11.252 5.627 15.004v0 0c0 0 1.875-1.875 3.752-5.627 1.875-3.752 3.752-7.5 3.752-11.252 1.875-3.752 3.752-7.5 5.627-9.377s3.752-3.752 5.627-1.875c3.752-3.752 5.627-7.5 7.5-11.252s1.875-7.5 1.875-13.127v-3.752c0-1.875 0-1.875 0-3.752s0-1.875-1.875-3.752c0-1.875-1.875-3.752-3.752-7.5-1.875-3.75-3.752-5.627-3.752-7.502s-1.875-3.752-1.875-3.752h-20.629l-9.377 9.377c1.875 0 1.875 0 0 0h0.007zM800.851 202.221c1.875 0 1.875-1.875 3.752-1.875 0-1.875 0-1.875 0-3.752s0-3.752 0-3.752 0-3.752 1.875-3.752c0-1.875 1.875-3.752 3.752-3.752 0 0 0 0 0-1.875 0 0 0 0-1.875 0v0c-1.875 0-5.627 0-7.502 1.875s-3.752 3.752-3.752 5.627c0 1.875-1.875 5.627-1.875 7.5s0 5.627 0 7.502c1.872-3.745 3.75-3.745 5.625-3.745v0zM795.226 153.459l1.875 1.875c1.875 0 1.875 1.875 3.752 1.875 1.875 0 1.875 0 3.752 0h1.875c0 0 1.875 0 1.875-1.875-1.875 0-1.875-1.875-1.875-3.752s0-3.752-1.875-3.752c0-1.875 0-1.875-1.875-3.752-1.875-1.875-1.875-1.875-1.875 0 0 0 0 0-1.875 0s-1.875 1.875-1.875 1.875l-3.75 3.75c-0.005 1.882-0.005 1.882 1.87 3.757v0zM800.851 174.090c0 0 1.875 1.875 3.752 1.875v0c3.752 0 5.627-1.875 5.627-5.627 0-1.875 0-1.875 0-3.752s-1.875-1.875-3.752-1.875c0 0-1.875 0-1.875 1.875s-1.875 1.875-1.875 1.875 0 0-1.875 0-1.875-1.875-1.875-1.875h1.875c-1.875 0-1.875 1.875-1.875 1.875v1.875l1.872 3.755zM825.232 147.832c1.875 0 3.752-1.875 5.627-1.875 1.875-1.875 3.752-1.875 5.627-1.875h1.875c0 0 1.875 0 1.875 1.875 1.875 0 1.875 0 1.875 0 1.875 0 3.752 0 7.5-1.875 3.75-1.875 5.627-3.752 9.377-5.627s5.627-3.752 7.502-7.5c1.875-1.875 3.752-3.752 5.627-7.502 0-1.875-1.875-1.875-1.875-1.875-1.875 0-1.875 0-1.875 0-3.752 0-7.5 0-11.252 1.875s-9.377 1.875-13.127 3.752c-3.75 1.875-11.252 5.627-15.004 9.377-1.875 1.875-3.752 5.625-3.752 11.249 0-1.875 0-1.875 0 0v0zM853.363 282.863v0c-1.875 0-1.875 0-1.875 0v0c-1.877-1.877 0-1.877 1.875 0 0-1.877 0-1.877 0 0 0-1.877 0-1.877 0 0zM855.237 35.309c1.875 0 3.752 0 5.627 0s3.752 0 3.752-1.875c1.875 0 1.875-1.875 1.875-3.752s0-3.752-1.875-5.627c-1.875-1.875-3.752-3.752-5.627-3.752s-1.875 0-3.752 1.875c-1.875 1.875-1.875 1.875-1.875 3.752s0 3.752-1.875 3.752c0 1.875 0 3.752 0 3.752 0 1.875 1.875 1.875 3.75 1.875v0zM920.878 40.936c0 1.875-1.875 3.752-1.875 5.627s0 3.752-1.875 7.5c0 1.875 0 3.752 0 5.627s3.752 0 3.752-1.875c0-1.875 1.875-1.875 3.752-3.752 1.875-1.875 1.875-1.875 1.875-3.752 0-1.875 1.875-3.752 3.752-3.752 0 0 1.875 0 3.752 0 1.875 0 1.875 0 3.752 0v0c0-1.875-1.875-3.752-3.752-7.5-1.875-3.75-5.627-7.502-9.377-11.252-3.752-3.752-7.5-7.5-11.252-9.377s-5.627-3.752-9.377-3.752c0 1.875 0 3.752 1.875 5.627 1.875 3.752 3.752 5.627 5.627 7.5 1.875 1.875 3.752 5.627 5.627 7.5s3.752 1.875 5.627 0c-0.007 1.88-1.882 3.755-1.885 5.632v0z" />
<glyph unicode="&#xe612;" glyph-name="preview_32" d="M343.040 272c0 97.28 75.568 176 168.96 176s168.96-78.72 168.96-176c0-97.28-75.568-176-168.96-176s-168.96 78.72-168.96 176zM128 256c0 0 149.61-224 385.859-224 236.221 0 382.141 224 382.141 224s-145.92 256-382.141 256c-234.403 0-385.859-256-385.859-256zM402.33 272c0-63.094 49.101-114.237 109.67-114.237s109.67 51.142 109.67 114.237c0 14-2.474 27.434-6.893 39.821-8.243-14.093-23.072-23.501-40.109-23.501-26.010 0-47.002 21.869-47.002 48.96 0 17.75 9.037 33.194 22.56 41.779-11.894 4.608-24.79 7.178-38.227 7.178-60.57 0-109.67-51.142-109.67-114.237z" />
<glyph unicode="&#xe613;" glyph-name="previewdkui_32" d="M535.165 301.642c0 23.955 19.821 43.373 44.272 43.373 24.454 0 44.275-19.418 44.275-43.373 0-23.958-19.821-43.376-44.275-43.376-24.451 0-44.272 19.418-44.272 43.376zM343.040 272c0 97.28 75.568 176 168.96 176s168.96-78.72 168.96-176c0-97.28-75.568-176-168.96-176s-168.96 78.72-168.96 176zM128 256c0 0 149.61-224 385.859-224 236.218 0 382.141 224 382.141 224s-145.923 256-382.141 256c-234.406 0-385.859-256-385.859-256z" />
<glyph unicode="&#xe614;" glyph-name="adobe_20" d="M605.445 562.954h264.955v-661.699zM418.765 562.954h-265.165v-661.699zM512.102 319.109l168.847-417.818h-110.648l-56.837 152.832h-112.64z" />
<glyph unicode="&#xe615;" glyph-name="creativeCloud_20" d="M619.612 501.801c-62.008 0-114.284-18.78-159.334-57.288l50.191-34.708c26.373 19.584 57.364 35.062 108.744 35.062 54.528 0 104.545-21.437 140.774-60.549 33.469-36.101 52.649-84.618 52.649-133.002 0-47.887-18.929-96.026-51.896-132.127-36.229-39.613-86.497-61.425-141.527-61.425-24.069 0-85.745 5.514-137.016 56.914l-113.449 113.449c-3.261 3.261-11.628 8.412-18.017 9.713-5.949 1.208-12.099 3.456-22.671-7.117-12.201-12.211-11.172-30.853-5.862-36.163l120.243-120.243c47.38-47.38 110.285-73.39 177.178-73.39 71.137 0 136.033 27.74 182.615 78.172 43.131 46.582 67.82 109.358 67.82 172.401-0.005 123.023-93.701 250.301-250.44 250.301zM585.6 265.231c-1.777 1.649-61.399 60.8-91.725 91.049-36.726 36.751-95.549 53.202-137.574 53.202-79.698 0-128.276-37.448-154.977-68.849-31.698-37.35-50.627-88.351-50.627-136.402 0-51.502 20.7-102.948 56.801-141.199 38.349-40.75 91.776-60.631 149.299-60.631l86.4-0.799-59.904 56.878-28.37 0.748c-80.502 0-146.002 65.198-146.002 145.352 0 90.148 75.802 146.002 146.002 146.002 34.125 0 75.177-15.299 95.452-35.599 7.301-7.301 59.049-58.752 79.227-78.802l8.023-7.951c2.499-2.499 9.149-9.149 23.951-9.702h0.927c4.127 0 14.674 1.050 23.199 10.752 5.002 4.951 7.624 10.952 7.649 17.398 0 8.003-3.953 14.756-7.752 18.555zM870.292 499.523c-65.879 65.884-153.641 102.164-247.112 102.164-119.839 0-201.17-58.993-239.283-94.536-9.969 1.004-19.983 1.51-29.932 1.51-80.84 0-156.877-31.514-214.098-88.74-118.241-118.236-118.246-310.748-0.015-429.133 58.214-58.209 134.246-90.26 214.113-90.26h269.215c93.097 0 185.677 38.758 247.649 103.675 136.033 136.325 136.023 358.758-0.538 495.319zM623.176-71.501h-269.199c-72.448 0-141.476 29.148-194.35 82.048-107.351 107.5-107.351 282.25 0 389.601 51.948 51.901 120.975 80.548 194.35 80.548 12.774 0 25.324-0.901 37.274-2.55l2.55-0.399 1.802 1.848c28.273 28.252 107.023 94.1 227.574 94.1 86.026 0 166.774-33.398 227.348-93.952 125.727-125.701 125.727-330.348-0.077-456.351-56.648-59.392-141.624-94.894-227.272-94.894z" />
<glyph unicode="&#xe616;" glyph-name="licenseHistory_20" d="M385.828-80.456c0-41.236-30.563-74.665-68.265-74.665s-68.265 33.429-68.265 74.665c0 41.236 30.563 74.665 68.265 74.665s68.265-33.429 68.265-74.665zM778.358-80.456c0-41.236-30.563-74.665-68.265-74.665s-68.265 33.429-68.265 74.665c0 41.236 30.563 74.665 68.265 74.665s68.265-33.429 68.265-74.665zM800.916 102.4c-4.936 0-482.744 0-482.744 0l19.512 62.935h429.292c16.271 0 30.28 11.484 33.469 27.438l119.455 324.265c4.224 21.12-11.93 40.827-33.469 40.827h-3.231v0.783h-666.711l-32.998 89.574c-2.488 16.732-16.85 29.112-33.761 29.112h-65.418c-18.852 0-34.135-15.283-34.135-34.135s15.283-34.13 34.135-34.13h35.983l151.752-407.91-33.116-129.946c-5.386-21.545 10.911-49.27 33.116-49.27 0 0 518.851 0 529.065 0 18.852 0 34.135 22.139 34.135 40.991s-15.483 39.465-34.33 39.465zM242.908 486.948h590.628l-94.541-253.348h-402.755l-93.332 253.348z" />
<glyph unicode="&#xe617;" glyph-name="logOut_20" d="M512 204.8v0c-28.278 0-51.2 22.922-51.2 51.2v358.4c0 28.278 22.922 51.2 51.2 51.2v0c28.278 0 51.2-22.922 51.2-51.2v-358.4c0-28.278-22.922-51.2-51.2-51.2zM688.712 507.023l-42.276-84.557c48.753-39.455 80.604-99.011 80.604-166.467 0-118.574-96.461-215.040-215.040-215.040s-215.040 96.461-215.040 215.040c0 67.456 31.852 127.012 80.599 166.467l-42.271 84.557c-78.853-55.603-130.488-147.205-130.488-251.023 0-169.661 137.539-307.2 307.2-307.2s307.2 137.539 307.2 307.2c0 103.818-51.635 195.42-130.488 251.023z" />
<glyph unicode="&#xe618;" glyph-name="team_20" d="M531.579 204.8c-54.211 0-39.153 60.237-39.153 60.237 38.369 40.755 69.268 98.534 69.268 165.647 0 107.059-64.635 190.612-150.282 190.612-85.642 0-155.075-86.784-155.075-193.848 0-63.826 26.342-121.068 64.415-156.39 0 0 12.723-66.258-45.553-66.258 0 0-224-55.465-224-230.4v-25.6h716.8v25.6c0 174.935-236.421 230.4-236.421 230.4zM756.797 233.887c-49.526 0-35.773 55.030-35.773 55.030 35.052 37.233 63.288 90.020 63.288 151.337 0.005 97.818-59.049 174.147-137.293 174.147-20.972 0-40.709-6.052-58.619-16.271 30.976-45.645 50.094-103.163 50.094-167.444 0-56.929-16.62-113.085-47.657-163.123 103.613-35.128 238.413-119.465 252.549-267.556h129.413v23.388c0 159.816-216.003 210.493-216.003 210.493z" />
<glyph unicode="&#xe619;" glyph-name="user_20" d="M633.979 204.8c-54.211 0-39.153 60.237-39.153 60.237 38.369 40.755 69.268 98.534 69.268 165.647 0 107.059-64.635 190.612-150.282 190.612-85.642 0-155.075-86.784-155.075-193.848 0-63.826 26.342-121.068 64.415-156.39 0 0 12.723-66.258-45.553-66.258 0 0-224-55.465-224-230.4v-25.6h716.8v25.6c0 174.935-236.421 230.4-236.421 230.4z" />
<glyph unicode="&#xe61a;" glyph-name="vertical_20" d="M256 665.6v-819.2h563.2v819.2h-563.2zM716.8-51.2h-358.4v614.4h358.4v-614.4z" />
<glyph unicode="&#xe61b;" glyph-name="panoramic_20" d="M0 460.8v-409.6h1024v409.6h-1024zM921.6 153.6h-819.2v204.8h819.2v-204.8z" />
<glyph unicode="&#xe61c;" glyph-name="square_20" d="M256 512v-512h512v512h-512zM665.6 102.4h-307.2v307.2h307.2v-307.2z" />
<glyph unicode="&#xe61d;" glyph-name="horizontal_20" d="M102.4 512v-512h819.2v512h-819.2zM819.2 102.4h-614.4v307.2h614.4v-307.2z" />
<glyph unicode="&#xe61e;" glyph-name="creativeCloudLibrary_32" d="M768 512v128h-640v-640h128v-128h640v640h-128zM256 64h-64v512h512v-64h-448v-448zM832-64h-512v512h288v-288l80 64 80-64v288h64v-512z" />
<glyph unicode="&#xe61f;" glyph-name="creativeCloudLibrary_42" d="M828.952 560.762v146.286h-780.19v-780.19h146.286v-146.286h780.19v780.19h-146.286zM195.048-24.38h-97.524v682.667h682.667v-97.524h-585.143v-585.143zM926.476-170.666h-682.667v682.667h365.714v-390.095l109.714 97.524 109.714-97.524v390.095h97.524v-682.667z" />
<glyph unicode="&#xe620;" glyph-name="checkboxInactive_20" d="M716.8 460.8v-409.6h-409.6v409.6h409.6zM742.4 563.2h-460.8c-42.414 0-76.8-34.376-76.8-76.8v-460.8c0-42.424 34.386-76.8 76.8-76.8h460.8c42.414 0 76.8 34.376 76.8 76.8v460.8c0 42.424-34.386 76.8-76.8 76.8v0z" />
<glyph unicode="&#xe621;" glyph-name="checkboxActive_20" d="M742.4 563.2h-460.8c-42.414 0-76.8-34.386-76.8-76.8v-460.8c0-42.414 34.386-76.8 76.8-76.8h460.8c42.414 0 76.8 34.386 76.8 76.8v460.8c0 42.414-34.386 76.8-76.8 76.8zM732.826 329.549l-243.2-243.2c-11.126-11.1-25.902-17.249-41.626-17.249s-30.5 6.149-41.626 17.249l-115.2 115.2c-11.126 11.151-17.249 25.948-17.249 41.651s6.124 30.5 17.249 41.651c22.252 22.2 61 22.2 83.251 0l73.574-73.6 201.574 201.6c22.252 22.2 61 22.2 83.251 0 11.126-11.151 17.249-25.948 17.249-41.651s-6.124-30.5-17.249-41.651z" />
<glyph unicode="&#xe622;" glyph-name="checkboxPartial_20" d="M742.4 563.2h-460.8c-42.414 0-76.8-34.386-76.8-76.8v-460.8c0-42.414 34.386-76.8 76.8-76.8h460.8c42.414 0 76.8 34.386 76.8 76.8v460.8c0 42.414-34.386 76.8-76.8 76.8zM665.6 204.8h-307.2c-28.278 0-51.2 22.927-51.2 51.2s22.922 51.2 51.2 51.2h307.2c28.278 0 51.2-22.927 51.2-51.2s-22.922-51.2-51.2-51.2z" />
<glyph unicode="&#xe623;" glyph-name="previewdkui_20" d="M538.255 315.192c0 27.151 22.461 49.157 50.176 49.157s50.176-22.006 50.176-49.157c0-27.151-22.461-49.157-50.176-49.157s-50.176 22.006-50.176 49.157zM320.512 281.6c0 110.249 85.642 199.465 191.488 199.465s191.488-89.216 191.488-199.465-85.642-199.465-191.488-199.465-191.488 89.216-191.488 199.465zM76.8 263.465c0 0 169.559-253.865 437.309-253.865 267.715 0 433.091 253.865 433.091 253.865s-165.381 290.135-433.091 290.135c-265.661 0-437.309-290.135-437.309-290.135z" />
<glyph unicode="&#xe624;" glyph-name="radioInactive_20" d="M512 460.8c112.927 0 204.8-91.873 204.8-204.8s-91.873-204.8-204.8-204.8-204.8 91.873-204.8 204.8 91.873 204.8 204.8 204.8zM512 563.2c-169.661 0-307.2-137.539-307.2-307.2s137.539-307.2 307.2-307.2 307.2 137.539 307.2 307.2-137.539 307.2-307.2 307.2v0z" />
<glyph unicode="&#xe625;" glyph-name="radioActive_20" d="M512 563.2c-169.661 0-307.2-137.539-307.2-307.2s137.539-307.2 307.2-307.2 307.2 137.539 307.2 307.2-137.539 307.2-307.2 307.2v0z" />
<glyph unicode="&#xe626;" glyph-name="preview_20" d="M310.272 281.6c0 118.057 90.225 213.596 201.728 213.596s201.728-95.539 201.728-213.596-90.225-213.596-201.728-213.596-201.728 95.539-201.728 213.596zM76.8 263.168c0 0 169.559-258.048 437.309-258.048 267.715 0 433.091 258.048 433.091 258.048s-165.376 294.912-433.091 294.912c-265.661 0-437.309-294.912-437.309-294.912zM405.99 281.6c0-60.989 47.462-110.423 106.010-110.423s106.010 49.434 106.010 110.423c0 13.532-2.391 26.516-6.661 38.492-7.967-13.624-22.303-22.717-38.769-22.717-25.139 0-45.435 21.14-45.435 47.324 0 17.157 8.735 32.087 21.806 40.387-11.5 4.454-23.962 6.938-36.951 6.938-58.547 0-106.010-49.434-106.010-110.423z" />
<glyph unicode="&#xe627;" glyph-name="shoppingcart_20" d="M361.283 156.8h299.853c37.427 0 75.756 33.382 94.331 68.342l125.174 266.593-76.954 36.152-124.206-264.658c-2.821-5.258-8.248-8.525-14.203-8.525h-294.226l-171.745 356.495h-111.304v-101.386h67.159l135.721-282.614-33.756-62.065c-19.185-33.633-10.45-98.478 16.154-125.138 14.060-14.060 23.030-30.403 64-30.403 0.968 0 15.468-1.997 16.466-1.966h394.158l5.079 90.112-396.314-0.026c-35.389 0.005 4.613 59.085 4.613 59.085zM394.962-94.5c0-39.138-31.728-70.866-70.866-70.866s-70.866 31.728-70.866 70.866c0 39.138 31.728 70.866 70.866 70.866s70.866-31.728 70.866-70.866zM769.521-94.5c0-39.138-31.728-70.866-70.866-70.866s-70.866 31.728-70.866 70.866c0 39.138 31.728 70.866 70.866 70.866s70.866-31.728 70.866-70.866zM665.6 563.2h-102.4v102.4h-102.4v-102.4h-102.4v-102.4h102.4v-102.4h102.4v102.4h102.4z" />
<glyph unicode="&#xe628;" glyph-name="cloudSync_32" d="M656-6.925l-125.485-121.075-130.515 121.075h95.504v302.685h70.019v-302.685zM796.25 451.162c-15.107 108.944-107.648 191.219-220.077 191.219-81.245 0-153.421-44.054-192.205-110.656-5.037 0.429-10.112 0.643-15.213 0.643-92.054 0-168.192-69.462-178.749-158.723-41.942-25.587-70.006-71.786-70.006-124.41 0-80.294 65.325-145.619 145.619-145.619h138.771v76.864c-80.646 0-132.099 0-138.771 0-37.974 0-68.758 30.784-68.758 68.755s30.784 68.758 68.758 68.758c2.234 0 4.339-0.448 6.518-0.659-3.99 10.986-6.518 22.675-6.518 35.037 0 56.96 46.176 103.136 103.136 103.136 23.341 0 44.624-8.045 61.907-21.117 0.298 1.197 0.851 2.282 1.181 3.469 8.832 71.926 70.016 127.661 144.326 127.661 78.646 0 142.557-62.426 145.277-140.41 1.597-8.739 2.55-17.702 2.55-26.899 0-3.152-0.246-6.237-0.47-9.328 0.55 0.006 1.066 0.16 1.619 0.16 56.326 0 101.99-45.664 101.99-101.99 0-47.661-32.829-87.357-77.011-98.547-8.304-3.254-16.938-5.843-26.125-6.874v-1.152c0 0-5.283 0-73.648 0v-76.864c0 0 10.864 0 42.902 0 66.627 0 107.606 21.715 107.606 21.715 62.070 28.912 103.136 91.395 103.136 161.722 0.003 73.37-44.4 136.56-107.747 164.109z" />
<glyph unicode="&#xe900;" glyph-name="request_32" d="M416 605.274c10.534 0 35.2 0 35.2-50.608v-171.021l71.491 12.768c2.288 0.406 4.589 0.614 6.838 0.614 10.042 0 18.88-3.882 26.269-11.539l26.218-26.531 35.504 10.672c3.696 1.11 14.058 3.085 17.258 3.251 1.93 0 3.843-0.246 5.67-0.73 3.898-1.030 8.986-8.246 12.966-18.378l14.717-37.462 40.23-1.085c18.89-0.512 25.462-3.958 35.408-9.171l6.262-3.222c8.538-4.157 21.171-31.987 21.171-78.525 0-53.363 0-95.517-8.362-136.339-17.194-83.933-55.882-134.72-74.102-152.915l-276.794-0.006c-1.376 0-2.595 0.874-3.030 2.176l-3.504 10.966c0 17.162-4.502 34.125-13.018 49.056-20.8 36.48-95.747 132.458-173.635 230.733-8.714 10.995-15.389 19.398-19.021 24.051-21.76 44.317-6.538 57.146-1.421 61.45 6.368 5.366 14.787 8.445 23.834 8.739 7.315-2.022 26.032-13.699 44.026-31.44l114.925-115.066v382.314c-0.006 0.474 3.693 47.248 34.899 47.248zM416 666.074c-75.034 0-95.706-78.685-95.706-108.048v-235.408l-11.104 11.117c-20.678 20.39-57.251 49.299-85.606 49.299-23.907 0-46.794-8.192-64.445-23.062-21.862-18.41-52.4-61.13-11.184-140.272 1.856-3.562 163.85-203.878 191.619-252.579 3.296-5.776 5.034-12.323 5.034-18.938 0-6.918 1.123-13.792 3.325-20.355l3.334-9.946c8.746-26.070 33.174-43.642 60.675-43.642 0.003 0 0 0 0.003 0l295.056 0.006c12 0 88 67.75 115.402 201.51 9.507 46.406 9.6 92.618 9.6 148.544 0 55.923-14.979 113.526-55.35 133.187-14.058 7.098-29.648 17.507-66.65 18.509-11.002 28-28.736 48.227-53.974 54.918-6.918 1.834-14.067 2.762-21.251 2.762-0.003 0-0.010 0-0.016 0-9.818 0-27.622-3.613-35.213-5.968-18.691 19.366-43.28 30.118-70.016 30.118-5.859 0-11.709-0.525-17.526-1.562v98.4c-0.006 48.768-20.973 111.408-96.006 111.408v0z" />
<glyph unicode="&#xe901;" glyph-name="audioUnavailable_32" d="M768 0c-8.189 0-16.374 3.126-22.624 9.376l-512 512c-12.499 12.499-12.499 32.749 0 45.251s32.749 12.499 45.251 0l512-512c12.499-12.499 12.499-32.749 0-45.251-6.253-6.25-14.438-9.376-22.627-9.376zM576 337.133c0 103.062 0 195.184 0 206.867 0 32.39-9.619 32-32 32-13.085 0-65.475-54.621-106.813-100.054l138.813-138.813zM274.253 412.618c-10.717-5.171-18.253-15.923-18.253-28.618v-192c0-17.67 14.326-32 32-32h96c0 0 141.741-160 160-160s32 0.195 32 32c0 7.014 0 36.938 0 78.867l-301.747 301.75z" />
<glyph unicode="&#xe902;" glyph-name="audioMute_32" d="M800-32c-8.189 0-16.374 3.126-22.624 9.376l-576 576c-12.499 12.499-12.499 32.749 0 45.251s32.749 12.499 45.251 0l576-576c12.499-12.499 12.499-32.749 0-45.251-6.253-6.25-14.438-9.376-22.627-9.376zM270.867 416h-78.867c-17.674 0-32-14.33-32-32v-192c0-17.67 14.326-32 32-32h96c0 0 141.741-160 160-160s32 0.195 32 32c0 11.658 0 86.141 0 174.867l-209.133 209.133zM480 433.133c0 59.069 0 103.046 0 110.867 0 32.39-9.619 32-32 32-8.381 0-32.928-22.445-60.352-50.515l92.352-92.352zM610.099 303.030l54.144-54.141c2.701 12.669 4.57 25.642 4.57 39.11 0 73.766-42.643 137.626-104.474 168.678l-25.92-51.84c38.666-19.424 66.477-57.098 71.68-101.808zM739.187 288c0-33.738-6.995-65.712-18.79-95.267l43.622-43.622c20.701 42 32.794 88.954 32.794 138.886 0 123.789-71.539 230.938-175.293 283.040l-25.738-51.475c84.886-42.611 143.405-130.266 143.405-231.562zM617.568 69.299c-7.13-4.496-14.214-9.062-21.786-12.864l25.738-51.475c13.19 6.624 25.827 14.173 37.891 22.496l-41.843 41.843z" />
<glyph unicode="&#xe903;" glyph-name="audioOn_32" d="M448 576c-22.381 0-160-160-160-160h-96c-17.674 0-32-14.33-32-32v-192c0-17.67 14.326-32 32-32h96c0 0 141.741-160 160-160s32 0.195 32 32c0 30.317 0 485.056 0 512 0 32.39-9.619 32-32 32zM621.52 571.040l-25.738-51.475c84.89-42.614 143.405-130.266 143.405-231.562s-58.518-188.95-143.405-231.562l25.738-51.475c103.754 52.102 175.296 159.251 175.296 283.040s-71.542 230.931-175.296 283.034zM564.339 456.678l-25.92-51.84c42.947-21.578 72.768-65.587 72.768-116.838s-29.821-95.261-72.768-116.838l25.92-51.84c61.83 31.056 104.474 94.915 104.474 168.678s-42.643 137.626-104.474 168.678z" />
<glyph unicode="&#xe904;" glyph-name="label_20" d="M903.496 222.904l-376.499 376.494c-9.605 9.605-22.63 15.002-36.214 15.002h-311.583c-14.136 0-25.6-11.464-25.6-25.6v-311.588c0-13.583 5.396-26.614 15.002-36.219l376.494-376.494c9.999-9.999 26.204-9.999 36.204 0l322.191 322.202c9.999 9.994 9.999 26.204 0.005 36.204zM307.2 394.235c-36.762 0-66.56 29.809-66.56 66.565s29.798 66.565 66.56 66.565 66.56-29.809 66.56-66.565-29.798-66.565-66.56-66.565z" />
<glyph unicode="&#xe905;" glyph-name="arrowUp_20" d="M752.998 117.402c-9.984-9.984-23.091-15.002-36.198-15.002s-26.214 5.018-36.198 15.002l-168.602 168.653-168.602-168.653c-9.984-9.984-23.091-15.002-36.198-15.002s-26.214 5.018-36.198 15.002c-19.968 20.019-19.968 52.429 0 72.397l204.8 204.8c10.035 9.984 23.091 15.002 36.198 15.002s26.214-5.018 36.198-15.002l204.8-204.8c19.968-19.968 19.968-52.378 0-72.397z" />
<glyph unicode="&#xe906;" glyph-name="vimeo_20" d="M972.339 460.339q-6.144-134.81-187.955-369.152-187.955-244.787-318.003-244.787-80.538 0-136.294 149.043l-74.445 273.306q-41.318 148.992-88.781 149.043c-27.682-11.612-51.552-26.215-72.818-43.849l-42.843 56.137q68.25 60.262 134.502 120.371c36.429 38.296 82.529 67.061 134.395 82.397q109.676 10.787 134.61-146.807 26.829-170.189 37.274-211.661 30.976-141.261 68.25-141.261 28.928 0 87.040 91.597c29.115 39.41 50.712 86.244 61.627 137.044q8.671 81.426-61.627 81.478c-24.802-0.442-48.185-6.056-69.266-15.803q69.010 223.419 260.651 217.172 142.029-4.198 133.888-184.627v0z" />
<glyph unicode="&#xe907;" glyph-name="twitter_20" d="M972.8 523.469c-31.596-14.839-68.258-25.647-106.767-30.531 37.515 24.432 66.943 61.764 80.946 105.959-34.139-20.017-74.352-36.331-117.272-45.26-36.663 37.338-85.896 60.968-140.648 61.019-104.65-1.491-188.904-86.667-188.904-191.521 0-0.925 0.007-1.848 0.020-2.769 0.055-15.557 1.918-30.79 5.39-45.4-158.729 10.15-297.639 86.965-389.362 202.841-16.923-26.815-26.405-60.298-26.405-95.995 0-66.65 33.053-125.58 83.661-161.293-31.036 0.617-60.415 9.475-85.919 24.275 0.883-1.292 0.883-2.111 0.883-2.879-0.005-0.511-0.008-1.115-0.008-1.719 0-91.927 64.329-168.828 150.427-188.144-13.642-4.566-30.79-7.052-48.52-7.052-0.004 0-0.008 0-0.012 0-12.684 0.009-25.068 1.276-37.039 3.683 25.162-77.167 94.741-132.492 177.576-134.8-63.359-51.784-145.398-83.146-234.761-83.146-15.82 0-31.41 0.983-46.713 2.891 83.346-54.726 183.624-87.226 291.493-87.226 0.063 0 0.125 0 0.188 0 347.792 0 537.897 295.373 537.897 551.68 0 8.397 0 16.742-0.512 25.088 37.231 27.779 68.564 61.002 93.457 98.837z" />
<glyph unicode="&#xe908;" glyph-name="tumblr_20" d="M800-116.173c-36.409-28.732-82.958-46.086-133.561-46.086-0.583 0-1.166 0.002-1.748 0.007l-5.901-0.001c-4.631-0.372-10.027-0.583-15.472-0.583-113.476 0-205.466 91.99-205.466 205.466 0 2.384 0.041 4.758 0.121 7.122l-0.009 241.269c0 1.979-1.605 3.584-3.584 3.584 0 0 0 0 0 0h-84.275c0 0 0 0 0 0-1.979 0-3.584 1.605-3.584 3.584 0 0 0 0 0 0v110.080c0.009 1.511 0.951 2.8 2.28 3.32 87.58 33.77 149.401 115.431 153.607 212.042 0.085 3.723 2.568 6.348 5.727 6.639l112.665 0.002c0 0 0 0 0 0 1.979 0 3.584-1.605 3.584-3.584v-193.485c0-1.979 1.605-3.584 3.584-3.584 0 0 0 0 0 0h140.032c1.968-0.028 3.556-1.616 3.584-3.581v-128.003c0-1.979-1.605-3.584-3.584-3.584 0 0 0 0 0 0h-140.749c0 0 0 0 0 0-1.979 0-3.584-1.605-3.584-3.584 0 0 0 0 0 0v-229.427c-0.476-3.029-0.749-6.521-0.749-10.077 0-37.665 30.533-68.198 68.198-68.198 2.428 0 4.825 0.127 7.188 0.374 22.248 0.42 43.617 4.91 63.291 12.744-0.849-0.284-0.414-0.199 0.041-0.199 1.567 0 2.899-1.006 3.386-2.407l35.848-106.060c0.131-0.359 0.206-0.774 0.206-1.207 0-1.010-0.412-1.923-1.076-2.582zM635.494-197.171c86.323 0 171.878 30.72 200.141 67.994l5.683 7.475-53.504 158.72c-0.503 1.439-1.848 2.454-3.43 2.458h-119.552c-0.010 0-0.021 0-0.032 0-1.633 0-3.011 1.092-3.443 2.586-1.503 5.932-2.362 12.713-2.362 19.694 0 0.033 0 0.067 0 0.1v193.838c0 1.979 1.605 3.584 3.584 3.584 0 0 0 0 0 0h140.646c0 0 0 0 0 0 1.979 0 3.584 1.605 3.584 3.584 0 0 0 0 0 0v198.502c0 1.979-1.605 3.584-3.584 3.584 0 0 0 0 0 0h-140.032c0 0 0 0 0 0-1.979 0-3.584 1.605-3.584 3.584 0 0 0 0 0 0v193.485c0 0 0 0 0 0 0 1.979-1.605 3.584-3.584 3.584-0.018 0-0.036 0-0.054 0h-245.757c-21.222-0.272-38.607-16.346-40.942-36.98-2.689-88.9-61.804-163.115-142.552-188.322l-10.861-3.562c-1.44-0.487-2.458-1.826-2.458-3.402 0-0.010 0-0.020 0-0.029v-170.392c0-1.979 1.605-3.584 3.584-3.584 0 0 0 0 0 0h87.91v-209.92c0-167.526 116.019-246.579 330.598-246.579z" />
<glyph unicode="&#xe909;" glyph-name="pinterest_20" d="M517.12 716.8c-254.493 0-460.8-206.307-460.8-460.8s206.307-460.8 460.8-460.8c254.493 0 460.8 206.307 460.8 460.8-0.291 254.376-206.424 460.509-460.772 460.8zM517.12-143.36v0c-0.078 0-0.171 0-0.264 0-42.101 0-82.681 6.515-120.786 18.591l-24.359 9.006c-149.678 59.897-253.482 203.708-253.482 371.763 0 220.395 178.532 399.092 398.865 399.36h0.026c0 0 0 0 0 0 220.56 0 399.36-178.8 399.36-399.36s-178.8-399.36-399.36-399.36c0 0 0 0 0 0zM392.755-125.44c19.72 30.109 36.538 64.746 48.708 101.5 5.769 21.841 25.788 98.078 25.788 98.078 19.539-28.029 51.619-46.139 87.929-46.139 1.254 0 2.502 0.022 3.746 0.064 120.242-0.005 206.975 110.741 206.975 248.315-2.022 127.842-106.131 230.7-234.264 230.7-4.17 0-8.314-0.109-12.431-0.324-171.712 0.434-263.207-115.227-263.207-241.128-0.039-1.401-0.062-3.050-0.062-4.704 0-62.475 31.971-117.483 80.444-149.556 8.245-3.948 12.289-2.36 14.030 4.705 1.28 5.786 7.987 32.87 11.059 45.466 0.296 0.99 0.467 2.127 0.467 3.304 0 3.162-1.23 6.036-3.237 8.171-18.504 25.204-29.634 56.836-29.69 91.065-0.001 0.198-0.001 0.416-0.001 0.634 0 95.435 77.365 172.8 172.8 172.8 2.611 0 5.209-0.058 7.793-0.173 2.35 0.18 5.527 0.276 8.726 0.276 87.037 0 157.594-70.557 157.594-157.594 0-1.785-0.030-3.563-0.089-5.333 0.007-107.723-54.521-182.577-125.484-182.577-0.79-0.039-1.716-0.061-2.648-0.061-32.010 0-57.958 25.949-57.958 57.958 0 5.060 0.648 9.968 1.866 14.646 13.273 37.099 24.778 81.918 32.355 128.059 0.872 6.504 1.010 8.639 1.010 10.807 0 27.711-22.465 50.176-50.176 50.176-0.259 0-0.518-0.002-0.776-0.006-41.64-6.449-73.172-42.071-73.172-85.057 0-4.294 0.315-8.514 0.922-12.639-0.064-0.082-0.068-0.73-0.068-1.38 0-20.773 4.395-40.52 12.305-58.362s-39.942-166.351-47.161-197.532c-3.2-18.588-5.029-39.997-5.029-61.834 0-18.588 1.325-36.867 3.887-54.747z" />
<glyph unicode="&#xe90a;" glyph-name="instagram_20" d="M867.174 716.8h-710.4c-58.313-0.029-105.574-47.308-105.574-105.626 0 0 0 0 0 0v-710.4c0.029-58.295 47.279-105.545 105.572-105.574h710.403c0.015 0 0.033 0 0.051 0 58.307 0 105.574 47.267 105.574 105.574 0 0 0 0 0 0v710.4c0 0.015 0 0.033 0 0.051 0 58.307-47.267 105.574-105.574 105.574-0.018 0-0.036 0-0.054 0zM512 428.8c95.435 0 172.8-77.365 172.8-172.8s-77.365-172.8-172.8-172.8c-95.435 0-172.8 77.365-172.8 172.8s77.365 172.8 172.8 172.8zM857.6-60.826c0-0.015 0-0.033 0-0.051 0-15.892-12.883-28.774-28.774-28.774-0.018 0-0.036 0-0.054 0h-633.597c-15.88 0.029-28.745 12.894-28.774 28.772v393.68h88.064c-7.164-23.071-11.29-49.595-11.29-77.083 0-148.454 120.346-268.8 268.8-268.8s268.8 120.346 268.8 268.8c0 27.488-4.126 54.012-11.793 78.988l88.567-1.904v-393.574zM857.6 476.774c0-0.015 0-0.033 0-0.051 0-15.892-12.883-28.774-28.774-28.774-0.018 0-0.036 0-0.054 0h-95.997c-15.88 0.029-28.745 12.894-28.774 28.772v96.054c0.029 15.88 12.894 28.745 28.772 28.774h96.003c0.015 0 0.033 0 0.051 0 15.892 0 28.774-12.883 28.774-28.774 0-0.018 0-0.036 0-0.054v-95.946z" />
<glyph unicode="&#xe90b;" glyph-name="facebook_20" d="M921.958 716.8h-819.917c-28.079 0-50.842-22.763-50.842-50.842s22.763-50.842 50.842-50.842c28.079 0 50.842 22.763 50.842 50.842s-22.763 50.842-50.842 50.842c-28.079 0-50.842-22.763-50.842-50.842v-819.917c0-28.079 22.763-50.842 50.842-50.842h441.395v356.915h-120.064v139.059h120.115v102.4c-0.533 5.015-0.836 10.833-0.836 16.723 0 92.551 75.027 167.578 167.578 167.578 4.276 0 8.515-0.16 12.711-0.475 0.53 0.038 1.819 0.041 3.109 0.041 36.582 0 72.698-1.992 108.246-5.875l-4.395-124.026h-73.882c-3.697 0.843-7.943 1.327-12.302 1.327-31.868 0-57.702-25.834-57.702-57.702 0-3.948 0.396-7.803 1.152-11.527l-0.063-88.462h137.728l-17.92-139.11h-119.808v-356.864h234.854c0 0 0 0 0 0 28.079 0 50.842 22.763 50.842 50.842v819.917c0 28.079-22.763 50.842-50.842 50.842z" />
<glyph unicode="&#xe90c;" glyph-name="youtube_20" d="M416.87 136.448v258.97l248.73-129.946-248.986-129.024zM963.584 440.32c-4.783 34.788-17.893 65.836-37.246 91.984-23.175 23.225-55.705 38.064-91.7 38.473-128.999 9.319-322.637 9.319-322.637 9.319v0s-193.434 0-322.56-9.318c-36.072-0.415-68.599-15.253-92.151-39.005-18.982-25.615-32.093-56.664-36.755-90.41-5.558-45.369-8.894-97.157-9.33-149.636l-0.004-70.542c0.442-53.066 3.777-104.836 9.859-155.763 4.128-28.19 17.24-59.257 36.603-85.418 26.563-23.455 62.123-38.293 101.139-38.831 73.583-7.067 313.199-9.268 313.199-9.268s193.638 0.307 322.56 9.626c36.073 0.409 68.602 15.249 92.151 39.005 18.916 25.643 31.96 56.714 36.554 90.472 5.607 45.265 9.015 97.019 9.53 149.466l0.006 70.651c-0.444 53.088-3.78 104.875-9.86 155.82l0.644-6.623z" />
<glyph unicode="&#xe90d;" glyph-name="drag_32" d="M928 256l-160 160v-128h-224v224h128l-160 160-160-160h128v-224h-224v128l-160-160 160-160v128h224v-224h-128l160-160 160 160h-128v224h224v-128l160 160z" />
<glyph unicode="&#xe90e;" glyph-name="redo_32" d="M440.64 480h200v128l207.36-176-207.36-176v128h-200c-106.039 0-192-85.961-192-192s85.961-192 192-192h96c26.51 0 48-21.49 48-48s-21.49-48-48-48h-96c-159.058 0-288 128.942-288 288s128.942 288 288 288z" />
<glyph unicode="&#xe90f;" glyph-name="undo_32" d="M583.392 480h-200v128l-207.392-176 207.36-176v128h200c106.039 0 192-85.961 192-192s-85.961-192-192-192h-96c-26.51 0-48-21.49-48-48s21.49-48 48-48h96c0.005 0 0.010 0 0.016 0 159.058 0 288 128.942 288 288 0 159.052-128.933 287.991-287.983 288z" />
<glyph unicode="&#xe910;" glyph-name="sendtobottom_20" d="M752.998 394.598c-9.265 9.262-22.063 14.991-36.198 14.991s-26.934-5.729-36.199-14.991l-168.601-168.653-168.602 168.653c-9.198 8.892-21.744 14.372-35.569 14.372-28.277 0-51.2-22.923-51.2-51.2 0-13.826 5.48-26.371 14.386-35.584l204.786-204.786c9.265-9.262 22.063-14.991 36.198-14.991s26.934 5.729 36.199 14.991l204.8 204.8c9.262 9.265 14.991 22.063 14.991 36.198s-5.729 26.934-14.991 36.199zM768 102.4h-512c-28.277 0-51.2-22.923-51.2-51.2s22.923-51.2 51.2-51.2h512c28.277 0 51.2 22.923 51.2 51.2s-22.923 51.2-51.2 51.2z" />
<glyph unicode="&#xe911;" glyph-name="sendtotop_20" d="M752.998 117.402c-9.265-9.262-22.063-14.991-36.198-14.991s-26.934 5.729-36.199 14.991l-168.601 168.653-168.602-168.653c-9.198-8.892-21.744-14.372-35.569-14.372-28.277 0-51.2 22.923-51.2 51.2 0 13.826 5.48 26.371 14.386 35.584l204.786 204.786c9.265 9.262 22.063 14.991 36.198 14.991s26.934-5.729 36.199-14.991l204.8-204.8c9.262-9.265 14.991-22.063 14.991-36.198s-5.729-26.934-14.991-36.199zM768 512h-512c-28.277 0-51.2-22.923-51.2-51.2s22.923-51.2 51.2-51.2h512c28.277 0 51.2 22.923 51.2 51.2s-22.923 51.2-51.2 51.2z" />
<glyph unicode="&#xe912;" glyph-name="mail_32" d="M864 32h-704v51.2l243.2 140.8 73.6-60.8c19.2-16 51.2-16 70.4 0l73.6 60.8 243.2-140.8v-51.2zM160 128v281.6l211.2-160-211.2-121.6zM160 454.4v25.6h704v-22.4l-339.2-265.6c-6.4-6.4-16-6.4-22.4 0v0l-342.4 262.4zM864 403.2v-275.2l-211.2 118.4 211.2 156.8zM889.6 544h-755.2c-19.2 0-38.4-16-38.4-35.2v-502.4c0-19.2 16-38.4 35.2-38.4h758.4c22.4 0 38.4 16 38.4 38.4v499.2c0 19.2-16 38.4-38.4 38.4 3.2 0 0 0 0 0z" />
<glyph unicode="&#xe913;" glyph-name="vector_20" d="M947.2 563.2h-51.2c-14.138 0-25.6-11.462-25.6-25.6v-25.6h-256v76.8c0 14.138-11.462 25.6-25.6 25.6h-153.6c-14.138 0-25.6-11.462-25.6-25.6v-76.8h-256v25.6c0 14.138-11.462 25.6-25.6 25.6h-51.2c-14.138 0-25.6-11.462-25.6-25.6v-76.8h252.365c-109.978-96.563-149.965-300.902-149.965-409.6h-25.6c-14.138 0-25.6-11.462-25.6-25.6v-102.4c0-14.138 11.462-25.6 25.6-25.6h102.4c14.138 0 25.6 11.462 25.6 25.6v25.6h512v-25.6c0-14.138 11.462-25.6 25.6-25.6h102.4c14.138 0 25.6 11.462 25.6 25.6v102.4c0 14.138-11.462 25.6-25.6 25.6h-25.6c0 108.698-39.987 313.037-149.965 409.6h226.765c14.138 0 25.6 11.462 25.6 25.6v51.2c0 14.138-11.462 25.6-25.6 25.6zM204.8-51.2h-51.2v51.2h51.2v-51.2zM870.4-51.2h-51.2v51.2h51.2v-51.2zM831.181 51.2h-37.581c-14.138 0-25.6-11.462-25.6-25.6v-25.6h-512v25.6c0 14.138-11.462 25.6-25.6 25.6h-37.581c4.045 109.517 59.187 356.557 187.136 409.6h29.645v-25.6c0-14.138 11.462-25.6 25.6-25.6h153.6c14.138 0 25.6 11.462 25.6 25.6v25.6h29.645c127.949-53.043 183.091-300.083 187.136-409.6z" />
<glyph unicode="&#xe914;" glyph-name="vector_32" d="M976 608h-96c-8.837 0-16-7.163-16-16v-48h-256v48c0 8.837-7.163 16-16 16h-160c-8.837 0-16-7.163-16-16v-48h-256v48c0 8.837-7.163 16-16 16h-96c-8.837 0-16-7.163-16-16v-96c0-8.837 7.163-16 16-16h279.936c-18.010-11.57-33.651-24.353-47.697-38.704-100.463-102.608-105.615-270-104.783-345.296h-63.456c-8.837 0-16-7.163-16-16v-160c0-8.837 7.163-16 16-16h160c8.837 0 16 7.163 16 16v48h448v-48c0-8.837 7.163-16 16-16h160c8.837 0 16 7.163 16 16v160c0 8.837-7.163 16-16 16h-64c0.832 75.296-4.288 242.688-104.736 345.248-14.118 14.401-29.791 27.186-46.775 38.11l279.511 0.642c8.837 0 16 7.163 16 16v96c0 8.837-7.163 16-16 16zM224-32h-64v64h64v-64zM864-32h-64v64h64v-64zM720.32 418.88c91.68-93.664 96.384-251.488 95.68-322.88h-64c-8.837 0-16-7.163-16-16v-48h-448v48c0 8.837-7.163 16-16 16h-64.512c-0.8 71.392 3.904 229.216 95.584 322.88 27.073 27.448 60.584 48.475 98.087 60.637l14.841 0.483v-48c0-8.837 7.163-16 16-16h160c8.837 0 16 7.163 16 16v48h12.512c39.224-12.645 72.735-33.672 99.781-61.092z" />
<glyph unicode="&#xe915;" glyph-name="back_32" d="M449.952 81.952l-142.080 142.048h588.128v96h-588.128l142.080 142.048-67.904 67.904-257.92-257.952 257.92-257.952 67.904 67.904z" />
<glyph unicode="&#xe916;" glyph-name="camera_32" d="M586.4 544l49.44-63.68 2.528-3.2 2.912-2.912c16.211-16.193 38.597-26.208 63.322-26.208 0.058 0 0.117 0 0.175 0h145.207c0.067 0.001 0.147 0.002 0.226 0.002 7.528 0 13.647-6.031 13.789-13.525v-420.941c-0.143-7.507-6.262-13.537-13.79-13.537-0.068 0-0.137 0-0.205 0.001h-675.99c-0.067-0.001-0.147-0.002-0.226-0.002-7.528 0-13.647 6.031-13.789 13.525v420.941c0.143 7.507 6.262 13.538 13.79 13.538 0.080 0 0.159-0.001 0.238-0.002h145.204c0.068 0 0.149 0 0.23 0 24.709 0 47.082 10.002 63.291 26.178l2.91 2.91 2.528 3.2 49.408 63.712h148.8zM605.216 608h-186.432c-0.004 0-0.009 0-0.013 0-7.175 0-13.673-2.897-18.388-7.585l-62.783-80.831c-4.71-4.683-11.2-7.579-18.367-7.584h-145.217c-0.076 0-0.166 0-0.256 0-42.867 0-77.633-34.687-77.76-77.524v-420.94c0.127-42.849 34.893-77.536 77.76-77.536 0.090 0 0.18 0 0.27 0h675.986c0.067 0 0.145 0 0.224 0 42.867 0 77.632 34.687 77.76 77.524v420.94c-0.127 42.849-34.893 77.536-77.76 77.536-0.079 0-0.158 0-0.237 0h-145.236c-0.004 0-0.009 0-0.013 0-7.175 0-13.673 2.897-18.388 7.585l-62.751 80.831c-4.714 4.687-11.212 7.584-18.387 7.584-0.005 0-0.009 0-0.014 0h0.001zM512 432c-106.039 0-192-85.961-192-192s85.961-192 192-192c106.039 0 192 85.961 192 192s-85.961 192-192 192zM512 96c-79.529 0-144 64.471-144 144s64.471 144 144 144c79.529 0 144-64.471 144-144s-64.471-144-144-144zM608 240c0-53.019-42.981-96-96-96s-96 42.981-96 96c0 53.019 42.981 96 96 96s96-42.981 96-96z" />
<glyph unicode="&#xe917;" glyph-name="clock_32" d="M528.992 219.808c9.267 9.261 15.001 22.056 15.008 36.191v249.601c0 3.535-2.865 6.4-6.4 6.4h-51.2c-3.535 0-6.4-2.865-6.4-6.4v-249.6l-114.56-112.768c-1.16-1.158-1.877-2.759-1.877-4.528s0.717-3.37 1.877-4.528l33.504-33.504c1.158-1.16 2.759-1.877 4.528-1.877s3.37 0.717 4.528 1.877zM512 633.6c-208.543 0-377.6-169.057-377.6-377.6s169.057-377.6 377.6-377.6c208.543 0 377.6 169.057 377.6 377.6s-169.057 377.6-377.6 377.6zM512-64c-176.731 0-320 143.269-320 320s143.269 320 320 320c176.731 0 320-143.269 320-320s-143.269-320-320-320z" />
<glyph unicode="&#xe918;" glyph-name="paste_32" d="M736 576v-64h64v-608h-576v608h64v64h-96c-17.673 0-32-14.327-32-32v-672c0-17.673 14.327-32 32-32h640c17.673 0 32 14.327 32 32v672c0 17.673-14.327 32-32 32h-96zM576 576v96c0 17.673-14.327 32-32 32h-64c-17.673 0-32-14.327-32-32v-96h-64c-17.673 0-32-14.327-32-32v-96h320v96c0 17.673-14.327 32-32 32h-64z" />
<glyph unicode="&#xe919;" glyph-name="video_32" d="M838.848 672h-628.576c-39.008 0-50.272-11.648-50.272-26.016v-780c-0.002-0.115-0.003-0.251-0.003-0.388 0-13.982 11.209-25.346 25.132-25.596h653.719c13.946 0.25 25.155 11.614 25.155 25.596 0 0.136-0.001 0.273-0.003 0.408v779.979c0.002 0.125 0.003 0.272 0.003 0.42 0 13.982-11.209 25.346-25.132 25.596zM256-80c0-8.837-7.163-16-16-16h-32c-8.837 0-16 7.163-16 16v32c0 8.837 7.163 16 16 16h32c8.837 0 16-7.163 16-16v-32zM256 48c0-8.837-7.163-16-16-16h-32c-8.837 0-16 7.163-16 16v32c0 8.837 7.163 16 16 16h32c8.837 0 16-7.163 16-16v-32zM256 176c0-8.837-7.163-16-16-16h-32c-8.837 0-16 7.163-16 16v32c0 8.837 7.163 16 16 16h32c8.837 0 16-7.163 16-16v-32zM256 304c0-8.837-7.163-16-16-16h-32c-8.837 0-16 7.163-16 16v32c0 8.837 7.163 16 16 16h32c8.837 0 16-7.163 16-16v-32zM256 432c0-8.837-7.163-16-16-16h-32c-8.837 0-16 7.163-16 16v32c0 8.837 7.163 16 16 16h32c8.837 0 16-7.163 16-16v-32zM256 560c0-8.837-7.163-16-16-16h-32c-8.837 0-16 7.163-16 16v32c0 8.837 7.163 16 16 16h32c8.837 0 16-7.163 16-16v-32zM736-96h-448v320h448v-320zM736 288h-448v320h448v-320zM832-80c0-8.837-7.163-16-16-16h-32c-8.837 0-16 7.163-16 16v32c0 8.837 7.163 16 16 16h32c8.837 0 16-7.163 16-16v-32zM832 48c0-8.837-7.163-16-16-16h-32c-8.837 0-16 7.163-16 16v32c0 8.837 7.163 16 16 16h32c8.837 0 16-7.163 16-16v-32zM832 176c0-8.837-7.163-16-16-16h-32c-8.837 0-16 7.163-16 16v32c0 8.837 7.163 16 16 16h32c8.837 0 16-7.163 16-16v-32zM832 304c0-8.837-7.163-16-16-16h-32c-8.837 0-16 7.163-16 16v32c0 8.837 7.163 16 16 16h32c8.837 0 16-7.163 16-16v-32zM832 432c0-8.837-7.163-16-16-16h-32c-8.837 0-16 7.163-16 16v32c0 8.837 7.163 16 16 16h32c8.837 0 16-7.163 16-16v-32zM832 560c0-8.837-7.163-16-16-16h-32c-8.837 0-16 7.163-16 16v32c0 8.837 7.163 16 16 16h32c8.837 0 16-7.163 16-16v-32z" />
<glyph unicode="&#xe91a;" glyph-name="forward_32" d="M574.048 81.952l142.080 142.048h-588.128v96h588.128l-142.080 142.048 67.904 67.904 257.92-257.952-257.92-257.952-67.904 67.904z" />
<glyph unicode="&#xe91b;" glyph-name="add_20" d="M460.8 486.4v-179.2h-179.2c-14.138 0-25.6-11.462-25.6-25.6v-51.2c0-14.138 11.462-25.6 25.6-25.6h179.2v-179.2c0-14.138 11.462-25.6 25.6-25.6h51.2c14.138 0 25.6 11.462 25.6 25.6v179.2h179.2c14.138 0 25.6 11.462 25.6 25.6v51.2c0 14.138-11.462 25.6-25.6 25.6h-179.2v179.2c0 14.138-11.462 25.6-25.6 25.6h-51.2c-14.138 0-25.6-11.462-25.6-25.6z" />
<glyph unicode="&#xe91c;" glyph-name="device_20" d="M870.4 614.4h-768c-25.6-5.12-46.080-25.6-51.2-51.2v-512c5.12-25.6 25.6-46.080 51.2-51.2h256v-51.2h-51.2c0 0 0 0-5.12 0-15.36 0-25.6-10.24-20.48-25.6 0 0 0 0 0-5.12 0-10.24 10.24-20.48 25.6-20.48h358.4c15.36 0 25.6 10.24 25.6 25.6s-10.24 25.6-25.6 25.6h-51.2v51.2h256c25.6 5.12 46.080 25.6 51.2 51.2v512c-5.12 25.6-25.6 46.080-51.2 51.2zM819.2 102.4h-665.6v409.6h665.6v-409.6z" />
<glyph unicode="&#xe91d;" glyph-name="filters_20" d="M76.8 512h435.2c10.24-61.44 61.44-102.4 128-102.4s112.64 40.96 128 102.4h128c15.36 0 25.6 10.24 25.6 25.6s-10.24 25.6-25.6 25.6h-128c-10.24 61.44-61.44 102.4-128 102.4s-112.64-40.96-128-102.4h-435.2c-15.36 0-25.6-10.24-25.6-25.6s10.24-25.6 25.6-25.6zM768 537.6c0-5.12 0-10.24 0-15.36 0 5.12 0 10.24 0 15.36s0 10.24 0 15.36c0-5.12 0-10.24 0-15.36zM640 593.92c30.72 0 56.32-25.6 56.32-56.32s-25.6-56.32-56.32-56.32-56.32 25.6-56.32 56.32 25.6 56.32 56.32 56.32zM512 552.96c0-5.12 0-10.24 0-15.36s0-10.24 0-15.36c0 5.12 0 10.24 0 15.36s0 10.24 0 15.36zM896 51.2h-128c-10.24 61.44-61.44 102.4-128 102.4s-112.64-40.96-128-102.4h-435.2c-15.36 0-25.6-10.24-25.6-25.6s10.24-25.6 25.6-25.6h435.2c10.24-61.44 61.44-102.4 128-102.4s112.64 40.96 128 102.4h128c15.36 0 25.6 10.24 25.6 25.6s-10.24 25.6-25.6 25.6zM512 40.96c0-5.12 0-10.24 0-15.36 0 5.12 0 10.24 0 15.36zM640-30.72c-30.72 0-56.32 25.6-56.32 56.32s25.6 56.32 56.32 56.32 56.32-25.6 56.32-56.32-25.6-56.32-56.32-56.32zM768 10.24c0 5.12 0 10.24 0 15.36 0-5.12 0-10.24 0-15.36zM896 307.2h-435.2c-15.36 61.44-66.56 102.4-128 102.4s-112.64-40.96-128-102.4h-128c-15.36 0-25.6-10.24-25.6-25.6s10.24-25.6 25.6-25.6h128c10.24-61.44 61.44-102.4 128-102.4s112.64 40.96 128 102.4h435.2c15.36 0 25.6 10.24 25.6 25.6s-10.24 25.6-25.6 25.6zM204.8 281.6c0 5.12 0 10.24 0 15.36 0-5.12 0-10.24 0-15.36s0-10.24 0-15.36c0 5.12 0 10.24 0 15.36zM332.8 225.28c-30.72 0-56.32 25.6-56.32 56.32s25.6 56.32 56.32 56.32 56.32-25.6 56.32-56.32-25.6-56.32-56.32-56.32zM460.8 296.96c0-5.12 0-10.24 0-15.36 0 5.12 0 10.24 0 15.36z" />
<glyph unicode="&#xe91e;" glyph-name="subcategory_20" d="M102.4 573.44v-179.2c0-51.2 40.96-87.040 92.16-87.040h179.2c51.2 0 87.040 40.96 87.040 92.16v174.080c0 51.2-40.96 92.16-92.16 92.16v0h-174.080c-51.2 0-92.16-40.96-92.16-92.16v0zM204.8 563.2h153.6v-153.6h-153.6v153.6zM512 573.44v-179.2c0-51.2 40.96-87.040 92.16-87.040h179.2c51.2 0 87.040 40.96 87.040 92.16v174.080c0 51.2-40.96 92.16-92.16 92.16v0h-174.080c-51.2 0-92.16-40.96-92.16-92.16v0zM614.4 563.2h153.6v-153.6h-153.6v153.6zM102.4 163.84v-179.2c0-51.2 40.96-87.040 92.16-87.040h179.2c51.2 0 87.040 40.96 87.040 92.16v174.080c0 51.2-40.96 92.16-92.16 92.16v0h-174.080c-51.2 0-92.16-40.96-92.16-92.16v0zM204.8 153.6h153.6v-153.6h-153.6v153.6zM512 163.84v-179.2c0-51.2 40.96-87.040 92.16-87.040h179.2c51.2 0 87.040 40.96 87.040 92.16v174.080c0 51.2-40.96 92.16-92.16 92.16v0h-174.080c-51.2 0-92.16-40.96-92.16-92.16v0zM614.4 153.6h153.6v-153.6h-153.6v153.6z" />
<glyph unicode="&#xe91f;" glyph-name="viewsimilar_20" d="M102.4 512h563.2v-102.4h-378.88c-20.48 0-30.72-15.36-30.72-35.84v-271.36h-153.6v409.6zM686.080 51.2c20.48 0 30.72 15.36 30.72 35.84v271.36h153.6v-409.6h-563.2v102.4h378.88zM716.8 409.6v117.76c0 20.48-10.24 35.84-30.72 35.84h-604.16c-20.48 0-30.72-15.36-30.72-35.84v-445.44c0-15.36 15.36-30.72 30.72-30.72h174.080v-122.88c0-15.36 15.36-30.72 30.72-30.72h599.040c15.36 0 30.72 15.36 30.72 30.72v445.44c5.12 15.36-5.12 30.72-20.48 35.84 0 0-5.12 0-5.12 0h-174.080zM307.2 358.4h40.96l256-256h-81.92l-215.040 215.040v40.96zM419.84 358.4h81.92l163.84-163.84v-81.92l-245.76 245.76zM573.44 358.4h92.16v-92.16l-92.16 92.16zM450.56 102.4h-81.92l-61.44 61.44v81.92l143.36-143.36z" />
<glyph unicode="&#xe920;" glyph-name="device_32" d="M864 576h-704c-16 0-32-16-32-32v-480c0-16 16-32 32-32h224v-32h-32c-19.2 0-32-12.8-32-32s12.8-32 32-32h320c19.2 0 32 12.8 32 32s-12.8 32-32 32h-32v32h224c16 0 32 16 32 32v480c0 16-16 32-32 32zM832 96h-640v416h640v-416z" />
<glyph unicode="&#xe921;" glyph-name="filters_32" d="M112 512c0-16 12.8-28.8 28.8-32h422.4c16-57.6 67.2-96 124.8-96s108.8 38.4 124.8 96h67.2c19.2 0 32 12.8 32 32s-12.8 32-32 32h-67.2c-16 57.6-67.2 96-124.8 96s-108.8-38.4-124.8-96h-419.2c-16 0-32-12.8-32-28.8 0 0 0-3.2 0-3.2zM624 512c0 35.2 28.8 64 64 64s64-28.8 64-64-28.8-64-64-64-64 28.8-64 64zM112 256c0-19.2 12.8-32 32-32h99.2c16-57.6 67.2-96 124.8-96s108.8 38.4 124.8 96h387.2c19.2 0 32 12.8 32 32s-12.8 32-32 32h-387.2c-16 57.6-67.2 96-124.8 96s-108.8-38.4-124.8-96h-99.2c-19.2 0-32-12.8-32-32zM304 256c0 35.2 28.8 64 64 64s64-28.8 64-64-28.8-64-64-64-64 28.8-64 64zM112 0c0-19.2 12.8-32 32-32h387.2c16-57.6 67.2-96 124.8-96s108.8 38.4 124.8 96h99.2c19.2 0 32 12.8 32 32s-12.8 32-32 32h-99.2c-16 57.6-67.2 96-124.8 96s-108.8-38.4-124.8-96h-387.2c-19.2 0-32-12.8-32-32zM592 0c0 35.2 28.8 64 64 64s64-28.8 64-64-28.8-64-64-64-64 28.8-64 64z" />
<glyph unicode="&#xe922;" glyph-name="subcategory_32" d="M160 544v-192c0-35.2 28.8-64 64-64h192c35.2 0 64 28.8 64 64v192c0 35.2-28.8 64-64 64h-192c-35.2 0-64-28.8-64-64zM224 544h192v-192h-192v192zM160 192v-192c0-35.2 28.8-64 64-64h192c35.2 0 64 28.8 64 64v192c0 35.2-28.8 64-64 64h-192c-35.2 0-64-28.8-64-64zM224 192h192v-192h-192v192zM512 544v-192c0-35.2 28.8-64 64-64h192c35.2 0 64 28.8 64 64v192c0 35.2-28.8 64-64 64h-192c-35.2 0-64-28.8-64-64zM576 544h192v-192h-192v192zM512 192v-192c0-35.2 28.8-64 64-64h192c35.2 0 64 28.8 64 64v192c0 35.2-28.8 64-64 64h-192c-35.2 0-64-28.8-64-64zM576 192h192v-192h-192v192z" />
<glyph unicode="&#xe923;" glyph-name="viewsimilar_32" d="M160 512h512v-64h-320c-16 0-32-12.8-32-28.8 0 0 0-3.2 0-3.2v-288h-160v384zM672 384v-25.6l-25.6 25.6h25.6zM672 313.6v-83.2l-153.6 153.6h83.2l70.4-70.4zM672 185.6v-57.6h-28.8l-256 256h83.2l201.6-198.4zM601.6 128h-83.2l-134.4 134.4v83.2l217.6-217.6zM473.6 128h-89.6v89.6l89.6-89.6zM704 64c16 0 32 16 32 32v288h160v-384h-512v64h320zM736 448v96c0 19.2-12.8 32-32 32h-576c-16 0-32-12.8-32-28.8 0 0 0-3.2 0-3.2v-448c0-19.2 12.8-32 32-32h192v-96c0-19.2 12.8-32 32-32h576c16 0 32 16 32 32v448c0 19.2-12.8 32-32 32h-192z" />
<glyph unicode="&#xe924;" glyph-name="edit_20" d="M184.32-122.88l56.32 189.44 133.12-133.12c-61.44-20.48-143.36-40.96-189.44-56.32zM901.12 599.040c-66.56 66.56-158.72 81.92-179.2 61.44l-532.48-537.6c-5.12-5.12-10.24-10.24-10.24-15.36l-76.8-286.72c0-10.24 5.12-15.36 10.24-20.48s10.24-5.12 15.36-5.12 235.52 66.56 286.72 76.8c5.12 0 10.24 5.12 15.36 10.24l532.48 532.48c25.6 25.6 5.12 112.64-61.44 184.32zM844.8 542.72c25.6-25.6 40.96-56.32 51.2-87.040l-471.040-471.040-133.12 133.12 471.040 471.040c30.72-5.12 61.44-20.48 81.92-46.080z" />
<glyph unicode="&#xe925;" glyph-name="handle_20" d="M460.8 486.4c0-42.415-34.385-76.8-76.8-76.8s-76.8 34.385-76.8 76.8c0 42.415 34.385 76.8 76.8 76.8s76.8-34.385 76.8-76.8zM460.8 25.6c0-42.415-34.385-76.8-76.8-76.8s-76.8 34.385-76.8 76.8c0 42.415 34.385 76.8 76.8 76.8s76.8-34.385 76.8-76.8zM460.8 256c0-42.415-34.385-76.8-76.8-76.8s-76.8 34.385-76.8 76.8c0 42.415 34.385 76.8 76.8 76.8s76.8-34.385 76.8-76.8zM716.8 486.4c0-42.415-34.385-76.8-76.8-76.8s-76.8 34.385-76.8 76.8c0 42.415 34.385 76.8 76.8 76.8s76.8-34.385 76.8-76.8zM716.8 25.6c0-42.415-34.385-76.8-76.8-76.8s-76.8 34.385-76.8 76.8c0 42.415 34.385 76.8 76.8 76.8s76.8-34.385 76.8-76.8zM716.8 256c0-42.415-34.385-76.8-76.8-76.8s-76.8 34.385-76.8 76.8c0 42.415 34.385 76.8 76.8 76.8s76.8-34.385 76.8-76.8z" />
<glyph unicode="&#xe926;" glyph-name="update_20" d="M353.28 640c-143.36-56.32-245.76-194.56-250.88-348.16h76.8c5.12 122.88 87.040 230.4 199.68 276.48 133.12 40.96 276.48-5.12 363.52-112.64l-112.64-30.72c-10.24-5.12-15.36-20.48-5.12-25.6l199.68-102.4c5.12-5.12 10.24 0 15.36 5.12v0l97.28 194.56c5.12 10.24 0 15.36-10.24 20.48h-5.12l-107.52-30.72c-102.4 148.48-291.84 215.040-460.8 153.6zM640-92.16c143.36 56.32 245.76 194.56 250.88 348.16h-76.8c-5.12-122.88-87.040-230.4-199.68-276.48-133.12-40.96-276.48 5.12-363.52 112.64l112.64 30.72c10.24 5.12 15.36 20.48 5.12 25.6l-199.68 102.4c-5.12 5.12-10.24 0-15.36-5.12v0l-97.28-194.56c-5.12-10.24 0-15.36 10.24-20.48h5.12l107.52 30.72c97.28-153.6 291.84-215.040 460.8-153.6z" />
<glyph unicode="&#xe927;" glyph-name="UploadToCloud_32" d="M829.024 419.718c2.048 11.808 3.418 23.827 3.418 36.154 0 128.026-88.326 242.17-229.651 242.17-119.571 0-199.77-97.331-227.846-197.754-19.821 5.926-40.941 9.248-62.95 9.248-111.040 0-191.968-92.102-191.968-192.71 0-17.51 2.88-34.368 7.974-50.406-2.682 0.186-5.242 0.736-7.974 0.736-68.973 0-118.758-80.73-118.758-135.597s49.101-131.539 109.67-131.539c12.89 0 36.557 0 36.557 0h300.506v191.981h-138.579c-14.285 0-21.408 17.293-11.277 27.354l213.856 212.333 213.856-212.333c10.131-10.061 3.008-27.354-11.277-27.354h-138.579v-191.981h266.054l36.557 6.003c83.424 15.36 145.382 86.259 145.382 196.646 0 118.822-109.894 202.899-194.97 217.050zM576 0h-128v-240c0-8.838 7.162-16 16-16h96c8.838 0 16 7.162 16 16v240z" />
<glyph unicode="&#xe928;" glyph-name="exclamationmark_24" d="M593.579-12.885c0-45.055-36.524-81.579-81.579-81.579s-81.579 36.524-81.579 81.579c0 45.055 36.524 81.579 81.579 81.579s81.579-36.524 81.579-81.579zM590.165 510.507c-2.553-116.505-11.775-228.229-27.336-337.911 1.736 12.151-0.312-2.142-9.613-2.142h-82.389c-6.272 0-10.283 13.184-11.819 17.067-3.072 25.6-25.131 221.013-25.131 322.987v93.653c0 3.669 10.453 9.301 18.219 12.117 13.676 4.13 29.392 6.508 45.663 6.508 4.261 0 8.484-0.163 12.663-0.483 2.591 0.207 6.273 0.305 9.978 0.305 17.949 0 35.359-2.309 51.948-6.646 6.383-2.457 17.86-8.985 17.86-11.801v-93.867z" />
<glyph unicode="&#xe929;" glyph-name="info_24" d="M512 599.467c189.691 0 343.467-153.775 343.467-343.467s-153.775-343.467-343.467-343.467c-189.691 0-343.467 153.775-343.467 343.467v0c0.219 189.604 153.863 343.248 343.446 343.467zM512 680.533c-234.463 0-424.533-190.070-424.533-424.533s190.070-424.533 424.533-424.533c234.463 0 424.533 190.070 424.533 424.533s-190.070 424.533-424.533 424.533zM459.947 453.419c0 26.392 21.395 47.787 47.787 47.787s47.787-21.395 47.787-47.787c0.086-1.037 0.135-2.244 0.135-3.463 0-24.554-19.905-44.459-44.459-44.459-1.219 0-2.426 0.049-3.62 0.145-0.658-0.063-1.611-0.093-2.571-0.093-24.931 0-45.141 20.21-45.141 45.141 0 0.96 0.030 1.912 0.089 2.857zM586.667 85.333h-32v234.667c0 11.782-9.551 21.333-21.333 21.333h-96c-5.891 0-10.667-4.776-10.667-10.667v-21.333c0-5.891 4.776-10.667 10.667-10.667h32v-213.333h-32c-5.891 0-10.667-4.776-10.667-10.667v-21.333c0-5.891 4.776-10.667 10.667-10.667h149.333c5.891 0 10.667 4.776 10.667 10.667v21.333c0 5.891-4.776 10.667-10.667 10.667z" />
<glyph unicode="&#xe92a;" glyph-name="InfoFull_16" d="M512 704c-247.424 0-448-200.576-448-448s200.576-448 448-448c247.424 0 448 200.576 448 448s-200.576 448-448 448zM512 588.8c42.415 0 76.8-34.385 76.8-76.8s-34.385-76.8-76.8-76.8c-42.415 0-76.8 34.385-76.8 76.8s34.385 76.8 76.8 76.8zM640 32c0-17.673-14.327-32-32-32h-192c-17.673 0-32 14.327-32 32v32c0 17.673 14.327 32 32 32h32v192h-32c-17.673 0-32 14.327-32 32v32c0 17.673 14.327 32 32 32h144c8.837 0 16-7.163 16-16v-272h32c17.673 0 32-14.327 32-32z" />
<glyph unicode="&#xe92b;" glyph-name="sort_20" d="M128 614.4h460.8c14.138 0 25.6-11.462 25.6-25.6v-51.2c0-14.138-11.462-25.6-25.6-25.6h-460.8c-14.138 0-25.6 11.462-25.6 25.6v51.2c0 14.138 11.462 25.6 25.6 25.6zM128 358.4h307.2c14.138 0 25.6-11.462 25.6-25.6v-51.2c0-14.138-11.462-25.6-25.6-25.6h-307.2c-14.138 0-25.6 11.462-25.6 25.6v51.2c0 14.138 11.462 25.6 25.6 25.6zM128 102.4h204.8c14.138 0 25.6-11.462 25.6-25.6v-51.2c0-14.138-11.462-25.6-25.6-25.6h-204.8c-14.138 0-25.6 11.462-25.6 25.6v51.2c0 14.138 11.462 25.6 25.6 25.6zM819.2 102.4v486.4c0 14.138-11.462 25.6-25.6 25.6h-51.2c-14.138 0-25.6-11.462-25.6-25.6v-486.4h-128.87c-5.637-0.024-10.197-4.6-10.197-10.24 0-2.817 1.138-5.368 2.978-7.22l187.289-187.34 187.341 187.341c1.84 1.851 2.978 4.402 2.978 7.219 0 5.655-4.585 10.24-10.24 10.24-0.003 0-0.006 0-0.009 0z" />
<glyph unicode="&#xe92c;" glyph-name="exposure_20" d="M209.152 530.79c-66.142-71.778-106.695-168.018-106.695-273.73 0-44.516 7.191-87.353 20.476-127.412l218.366 2.857zM678.758 629.453c-49.139 22.81-106.661 36.116-167.29 36.116-88.281 0-169.973-28.211-236.553-76.109l68.892-203.053zM920.115 226.458c0.768 9.779 1.485 19.558 1.485 29.542-0.062 133.94-64.596 252.795-164.251 327.22l-167.474-119.962zM738.56 255.334l-128-396.339c140.442 35.718 250.19 140.5 292.287 275.166zM519.936-153.19l65.741 203.366h-427.366c72.126-122.669 203.436-203.721 353.682-203.776 0.385-0.010 0.83-0.015 1.276-0.015 2.351 0 4.665 0.154 6.934 0.454z" />
<glyph unicode="&#xe92d;" glyph-name="focusobject_20" d="M688.026 102.4h-352.051c-16.425 1.668-29.135 15.425-29.135 32.151 0 6.551 1.95 12.646 5.3 17.737l177.896 297.453c4.553 7.509 12.682 12.451 21.965 12.451s17.412-4.941 21.901-12.337l177.779-297.688c3.285-4.975 5.241-11.079 5.241-17.64 0-16.641-12.581-30.343-28.751-32.114zM102.4 665.6v-240.64c-0.165-0.77-0.259-1.655-0.259-2.563 0-7.069 5.731-12.8 12.8-12.8 0.091 0 0.182 0.001 0.273 0.003h25.586c7.069 0 12.8 5.731 12.8 12.8v192h192c7.069 0 12.8 5.731 12.8 12.8v25.6c0.002 0.077 0.003 0.168 0.003 0.259 0 7.069-5.731 12.8-12.8 12.8-0.907 0-1.792-0.094-2.646-0.274zM921.6 665.6h-240.64c-0.77 0.164-1.654 0.259-2.56 0.259-7.069 0-12.8-5.731-12.8-12.8 0-0.001 0-0.002 0-0.003v-25.6c0-7.069 5.731-12.8 12.8-12.8h192v-192.256c0-7.069 5.731-12.8 12.8-12.8h25.6c0.077-0.002 0.168-0.003 0.259-0.003 7.069 0 12.8 5.731 12.8 12.8 0 0.907-0.094 1.792-0.274 2.646zM921.6-153.6v240.64c0.164 0.77 0.259 1.654 0.259 2.56 0 7.069-5.731 12.8-12.8 12.8-0.001 0-0.002 0-0.003 0h-25.6c-7.069 0-12.8-5.731-12.8-12.8v-192h-192.256c-7.069 0-12.8-5.731-12.8-12.8v-25.6c0-0.001 0-0.002 0-0.003 0-7.069 5.731-12.8 12.8-12.8 0.906 0 1.79 0.094 2.643 0.273zM102.4-153.6h240.64c0.77-0.165 1.655-0.259 2.563-0.259 7.069 0 12.8 5.731 12.8 12.8 0 0.091-0.001 0.182-0.003 0.273v25.586c0 7.069-5.731 12.8-12.8 12.8h-192v192c0 7.069-5.731 12.8-12.8 12.8h-25.6c-0.077 0.002-0.168 0.003-0.259 0.003-7.069 0-12.8-5.731-12.8-12.8 0-0.907 0.094-1.792 0.274-2.646z" />
<glyph unicode="&#xe92e;" glyph-name="light_20" d="M714.24 256c0-111.694-90.546-202.24-202.24-202.24s-202.24 90.546-202.24 202.24c0 111.694 90.546 202.24 202.24 202.24s202.24-90.546 202.24-202.24zM491.52 716.8h40.96c14.138 0 25.6-11.462 25.6-25.6v-102.4c0-14.138-11.462-25.6-25.6-25.6h-40.96c-14.138 0-25.6 11.462-25.6 25.6v102.4c0 14.138 11.462 25.6 25.6 25.6zM491.52-51.2h40.96c14.138 0 25.6-11.462 25.6-25.6v-102.4c0-14.138-11.462-25.6-25.6-25.6h-40.96c-14.138 0-25.6 11.462-25.6 25.6v102.4c0 14.138 11.462 25.6 25.6 25.6zM76.8 302.080h102.4c14.138 0 25.6-11.462 25.6-25.6v-40.96c0-14.138-11.462-25.6-25.6-25.6h-102.4c-14.138 0-25.6 11.462-25.6 25.6v40.96c0 14.138 11.462 25.6 25.6 25.6zM844.8 302.080h102.4c14.138 0 25.6-11.462 25.6-25.6v-40.96c0-14.138-11.462-25.6-25.6-25.6h-102.4c-14.138 0-25.6 11.462-25.6 25.6v40.96c0 14.138 11.462 25.6 25.6 25.6zM725.339 533.477l72.408 72.408c9.997 9.997 26.206 9.997 36.204 0l28.963-28.963c9.997-9.997 9.997-26.206 0-36.204l-72.408-72.408c-9.997-9.997-26.206-9.997-36.204 0l-28.963 28.963c-9.997 9.997-9.997 26.206 0 36.204zM162.139-29.741l72.408 72.408c9.997 9.997 26.206 9.997 36.204 0l28.963-28.963c9.997-9.997 9.997-26.206 0-36.204l-72.408-72.408c-9.997-9.997-26.206-9.997-36.204 0l-28.963 28.963c-9.997 9.997-9.997 26.206 0 36.204zM161.611 577.424l28.963 28.963c9.997 9.997 26.206 9.997 36.204 0l72.408-72.408c9.997-9.997 9.997-26.206 0-36.204l-28.963-28.963c-9.997-9.997-26.206-9.997-36.204 0l-72.408 72.408c-9.997 9.997-9.997 26.206 0 36.204zM724.309 14.736l28.963 28.963c9.997 9.997 26.206 9.997 36.204 0l72.408-72.408c9.997-9.997 9.997-26.206 0-36.204l-28.963-28.963c-9.997-9.997-26.206-9.997-36.204 0l-72.408 72.408c-9.997 9.997-9.997 26.206 0 36.204z" />
<glyph unicode="&#xe92f;" glyph-name="repetition_20" d="M435.661-102.4h-308.122c-14.272 1.167-25.413 13.038-25.413 27.51 0 5.634 1.688 10.874 4.587 15.241l153.024 250.778c4.572 7.414 12.649 12.281 21.862 12.281s17.29-4.867 21.799-12.171l153.151-250.99c2.835-4.265 4.523-9.505 4.523-15.139 0-14.473-11.141-26.343-25.314-27.504zM896.461-102.4h-308.122c-14.272 1.167-25.413 13.038-25.413 27.51 0 5.634 1.688 10.874 4.587 15.241l153.024 250.778c4.572 7.414 12.649 12.281 21.862 12.281s17.29-4.867 21.799-12.171l153.151-250.99c2.835-4.265 4.523-9.505 4.523-15.139 0-14.473-11.141-26.343-25.314-27.504zM435.661 307.2h-308.122c-14.272 1.167-25.413 13.038-25.413 27.51 0 5.634 1.688 10.874 4.587 15.241l153.024 250.778c4.572 7.414 12.649 12.281 21.862 12.281s17.29-4.867 21.799-12.171l153.151-250.99c2.835-4.265 4.523-9.505 4.523-15.139 0-14.473-11.141-26.343-25.314-27.504zM896.461 307.2h-308.122c-14.272 1.167-25.413 13.038-25.413 27.51 0 5.634 1.688 10.874 4.587 15.241l153.024 250.778c4.572 7.414 12.649 12.281 21.862 12.281s17.29-4.867 21.799-12.171l153.151-250.99c2.835-4.265 4.523-9.505 4.523-15.139 0-14.473-11.141-26.343-25.314-27.504z" />
<glyph unicode="&#xe930;" glyph-name="linkout_20" d="M819.2 268.8v-320h-614.4v614.4h320c7.069 0 12.8 5.731 12.8 12.8v76.8c0 7.069-5.731 12.8-12.8 12.8h-396.8c-14.138 0-25.6-11.462-25.6-25.6v-768c0-14.138 11.462-25.6 25.6-25.6h768c14.138 0 25.6 11.462 25.6 25.6v396.8c0 7.069-5.731 12.8-12.8 12.8h-76.8c-7.069 0-12.8-5.731-12.8-12.8zM653.824 643.789l86.733-86.733-244.378-244.429c-2.308-2.315-3.735-5.509-3.735-9.037s1.427-6.722 3.735-9.037l54.169-54.323c2.317-2.323 5.522-3.76 9.062-3.76s6.745 1.437 9.062 3.76l244.378 244.378 86.784-86.784c2.327-2.385 5.573-3.865 9.165-3.865 7.069 0 12.8 5.731 12.8 12.8 0 0.027 0 0.053 0 0.080v258.761h-258.765c-7.035-0.045-12.721-5.758-12.721-12.8 0-3.515 1.417-6.699 3.711-9.012z" />
<glyph unicode="&#xe931;" glyph-name="Help_20" d="M512 665.6c-226.216 0-409.6-183.384-409.6-409.6s183.384-409.6 409.6-409.6c226.216 0 409.6 183.384 409.6 409.6s-183.384 409.6-409.6 409.6zM512-51.2c-42.415 0-76.8 34.385-76.8 76.8s34.385 76.8 76.8 76.8c42.415 0 76.8-34.385 76.8-76.8s-34.385-76.8-76.8-76.8zM612.198 281.6l-5.12-5.12c-20.224-21.197-43.11-45.261-43.11-60.16 0.069-12.694 3.461-24.581 9.348-34.855l3.555-6.77-2.918-11.008c-2.457-5.722-8.037-9.661-14.539-9.677h-68.61c-0.423-0.029-0.917-0.045-1.415-0.045-5.897 0-11.258 2.297-15.236 6.046-13.472 17.501-21.598 39.743-21.598 63.884 0 0.253 0.001 0.506 0.003 0.759 4.395 42.864 25.524 80.124 56.657 105.623 5.397 5.801 10.517 10.972 15.023 15.58 16.077 16.64 25.958 27.392 25.958 38.81 0 7.885 0 31.846-45.722 31.846-38.776-1.195-75.118-10.414-107.81-26.042-0.652-0.705-3.407-1.536-6.356-1.536-3.28 0-6.319 1.028-8.814 2.779l-5.992 4.319-1.434 11.52v74.189c-0.060 0.614-0.093 1.328-0.093 2.050 0 7.911 4.078 14.87 10.247 18.889 39.817 18.717 86.332 29.756 135.388 30.107 3.168 0.253 6.714 0.397 10.294 0.397 72.163 0 130.662-58.5 130.662-130.662 0-1.652-0.031-3.297-0.091-4.934 0.024-0.632 0.034-1.656 0.034-2.682 0-44.503-18.512-84.681-48.256-113.255z" />
<glyph unicode="&#xe932;" glyph-name="Editorial_20" d="M358.4 512h460.8v-102.4h-460.8v102.4zM614.4 358.4h204.8v-51.2h-204.8v51.2zM614.4 256h204.8v-51.2h-204.8v51.2zM358.4 153.6h460.8v-51.2h-460.8v51.2zM358.4 51.2h460.8v-51.2h-460.8v51.2zM358.4 358.4h204.8v-153.6h-204.8v153.6zM947.2 665.6h-716.8c-14.138 0-25.6-11.462-25.6-25.6v-691.2c0-28.277-22.923-51.2-51.2-51.2s-51.2 22.923-51.2 51.2v409.6h51.2v51.2h-76.8c-14.138 0-25.6-11.462-25.6-25.6v-435.2c0.319-56.312 46.042-101.838 102.398-101.838 0.199 0 0.397 0.001 0.595 0.002l-0.594-0.563h691.2c70.692 0 128 57.308 128 128v665.6c0 14.138-11.462 25.6-25.6 25.6zM921.6-25.6c0-42.415-34.385-76.8-76.8-76.8h-604.16c9.632 16.322 15.333 35.96 15.36 56.927v659.873h665.6z" />
<glyph unicode="&#xe933;" glyph-name="Coin1_48" d="M512 298.667c-95.424 0-192-29.312-192-85.333v-85.333c0-56.021 96.576-85.333 192-85.333s192 29.312 192 85.333v85.333c0 56.021-96.576 85.333-192 85.333zM512 256c97.003 0 149.333-30.293 149.333-42.667s-52.331-42.667-149.333-42.667-149.333 30.293-149.333 42.667 52.331 42.667 149.333 42.667zM512 85.333c-97.003 0-149.333 30.293-149.333 42.667v29.867c40.937-18.957 88.848-30.014 139.341-30.014 3.514 0 7.015 0.054 10.502 0.16 2.467-0.106 5.968-0.16 9.482-0.16 50.493 0 98.404 11.057 141.443 30.882l-2.102-30.735c0-12.373-52.331-42.667-149.333-42.667z" />
<glyph unicode="&#xe934;" glyph-name="Coin2_48" d="M554.667 384c-95.424 0-192-29.312-192-85.333v-170.667c0-56.021 96.576-85.333 192-85.333s192 29.312 192 85.333v170.667c0 56.021-96.576 85.333-192 85.333zM554.667 341.333c97.003 0 149.333-30.293 149.333-42.667s-52.331-42.667-149.333-42.667-149.333 30.293-149.333 42.667 52.331 42.667 149.333 42.667zM554.667 85.333c-97.003 0-149.333 30.293-149.333 42.667v29.632c29.199-14.217 63.188-23.864 99.044-26.995 1.776-0.154 2.566-0.198 3.366-0.198 11.784 0 21.337 9.553 21.337 21.337 0 10.984-8.299 20.029-18.969 21.207-74.656 7.987-104.779 31.817-104.779 40.35v29.867c40.937-18.957 88.848-30.014 139.341-30.014 3.514 0 7.015 0.054 10.502 0.16 2.467-0.106 5.968-0.16 9.482-0.16 50.493 0 98.404 11.057 141.443 30.882l-2.102-30.735c0-8.171-28.672-31.211-99.627-39.765-10.64-1.312-18.797-10.295-18.797-21.184 0-11.783 9.552-21.336 21.336-21.336 0.895 0 1.777 0.055 2.642 0.162 34.866 3.308 66.926 12.747 96.026 27.241l-1.58-30.451c0-12.373-52.331-42.667-149.333-42.667z" />
</font>
</defs>
</svg>
