<svg version="1.1" xmlns="http://www.w3.org/2000/svg" xmlns:xlink="http://www.w3.org/1999/xlink" x="0px" y="0px" viewBox="0 0 155 31" enable-background="new 0 0 155 31" xml:space="preserve">
	<path fill="#fff" d="M7.7,26.4L0.2,5.9h1.7l6.8,18.9H9l6.8-18.9h1.5L9.9,26.4H7.7z"/>
	<path fill="#fff" d="M28.9,25.1c-1.5,1.2-3.5,1.4-5.3,1.4c-2.1,0-4.2-0.7-5.6-2.5c-1.2-1.4-1.7-3.1-1.7-5.1c0-1.9,0.4-4,1.7-5.6c1.1-1.5,2.8-2.6,4.9-2.6c2,0,3.6,0.9,4.7,2.6c1,1.4,1.3,3.4,1.3,5.3v0.7H17.8c0.1,1.6,0.5,2.9,1.4,3.8c1.1,1.4,2.7,1.9,4.4,1.9c1.8,0,3.5-0.4,4.9-1.5L28.9,25.1z M27.4,18.1c0-1.4-0.3-2.9-1.1-4.2c-0.7-1.2-2-1.9-3.5-1.9s-2.8,0.6-3.7,2c-0.9,1-1.3,2.5-1.4,4.1H27.4z"/>
	<path fill="#fff" d="M43.1,25.7c-1.3,0.5-2.8,0.7-4.6,0.7c-2.1,0-4.3-0.7-5.7-2.6c-1.1-1.5-1.7-3.2-1.7-5.2c0-1.9,0.4-4,1.8-5.4c1.3-1.6,3.2-2.5,5.6-2.5c1.4,0,3,0.3,4.3,0.9l-0.4,1.3C41,12.4,39.7,12,38.5,12c-1.8,0-3.4,0.6-4.4,2s-1.4,3-1.4,4.6c0,1.5,0.3,3.1,1.3,4.3c1.1,1.5,2.6,2.1,4.5,2.1c1.4,0,2.8-0.3,4.2-0.9L43.1,25.7z"/>
	<path fill="#fff" d="M50.1,26.4c-3.1-0.6-4.2-2.7-4.2-6.1V6.1h1.5v4.7h3.1v1.4h-3.1v8.3c0,2.5,0.4,4.2,3,4.8L50.1,26.4z"/>
	<path fill="#fff" d="M52.1,18.6c0-4.7,3-7.9,7.2-7.9c4.3,0,7.3,3.2,7.3,7.9s-3,7.8-7.3,7.8S52.1,23.3,52.1,18.6z M65,18.6c0-4-2.1-6.6-5.8-6.6c-3.5,0-5.7,2.7-5.7,6.6s2.1,6.5,5.7,6.5C62.8,25.2,65,22.6,65,18.6z"/>
	<path fill="#fff" d="M69,26.4V10.7h1.4l0.1,2.6c1.2-1.2,2.8-2.3,4.6-2.6l0.5,1.4c-1.9,0-3.6,1.3-5.1,2.7v11.6C70.5,26.4,69,26.4,69,26.4z"/>
	<path fill="#fff" d="M77.9,22.9l0.2-0.1c1.9,0.7,3.8,1.3,6,1.3c1.1,0,2.5-0.2,3.5-0.7c1.1-0.5,1.8-1.5,1.8-2.9c0-1.7-1.9-2.5-3.4-2.9c-1.4-0.4-2.8-0.7-4.2-1.3c-2.1-0.9-4.1-2.1-4.1-4.7c0-1.9,0.9-3.3,2.1-4.3c1.3-1,3-1.4,4.7-1.4c2.2,0,4.6,1.3,6.7,2.3l-0.7,2.3l-0.2,0.1c-1.6-1.1-3.6-2.3-5.8-2.3c-1.1,0-2.1,0.2-2.9,0.6c-0.7,0.4-1.3,1.1-1.3,2c0,1.4,1.3,2.1,2.7,2.6c1.6,0.5,3.2,0.9,4.9,1.5c1.1,0.4,2.1,1,2.9,1.8c0.7,0.9,1.3,2.1,1.3,3.4c0,1.9-1,3.6-2.7,4.7c-1.6,1-3.5,1.5-5.4,1.5c-2.3,0-4.6-0.4-7-1.3L77.9,22.9z"/>
	<path fill="#fff" d="M100.6,26.4c-1.8-0.1-3.6-0.5-4.9-2.1c-0.6-1-1.1-2.1-1.1-3.3V6.1h2.8v4.7h3.7V13h-3.7v8c0,0.7,0.2,1.5,0.7,2.1c0.7,0.7,1.9,1,3,1l0.2,0.1L100.6,26.4z"/>
	<path fill="#fff" d="M102.6,18.6c0-4.6,2.8-7.9,7.3-7.9s7.3,3.4,7.3,7.9c0,4.6-2.8,7.9-7.3,7.9C105.4,26.4,102.6,23.1,102.6,18.6z M114.3,18.6c0-3.4-1.7-5.6-4.5-5.6s-4.5,2.1-4.5,5.6s1.7,5.6,4.5,5.6C112.6,24.1,114.3,22.1,114.3,18.6z"/>
	<path fill="#fff" d="M130.6,25.6c-1.3,0.5-2.7,0.9-4.3,0.9c-1.8,0-3.6-0.6-5-1.9c-1.6-1.5-2.3-3.6-2.3-6c0-1.9,0.5-4.1,1.9-5.6s3.3-2.2,5.3-2.2c1.6,0,2.9,0.4,4.3,0.9l-0.7,2.2l0,0c-1.2-0.4-2.1-0.7-3.3-0.7c-1.3,0-2.6,0.4-3.4,1.5s-1.3,2.5-1.3,4c0,1.4,0.4,3,1.3,4.1c0.9,1,1.9,1.4,3.4,1.5c1.3,0,2.1-0.4,3.3-0.7l0.2,0.1L130.6,25.6z"/>
	<path fill="#fff" d="M142.4,26.4l-5.3-7.6l-1.3,1.2v6.4H133V6.1h2.8v10.6l6.2-5.9h3.6l-6.7,6.4l7,9.4h-3.5L142.4,26.4L142.4,26.4z"/>
	<path fill="#fff" d="M151.9,10.9L150.5,9h-0.9v1.8H149V5.9h1.3c0.5,0,1,0,1.4,0.3s0.6,0.7,0.6,1.3s-0.3,1.3-1,1.4l1.5,1.9h-0.9V10.9z M150.3,8.5c0.4,0,0.7,0,1-0.2c0.2-0.2,0.3-0.4,0.3-0.7s-0.1-0.6-0.3-0.7c-0.2-0.2-0.6-0.2-1-0.2h-0.6v1.9h0.6V8.5z"/>
	<path fill="#fff" d="M150.6,12.8c-2.3,0-4.2-1.8-4.2-4.2s1.8-4.2,4.2-4.2s4.2,1.9,4.2,4.2S152.9,12.8,150.6,12.8z M150.6,4.9c-2,0-3.7,1.7-3.7,3.7s1.7,3.7,3.7,3.7s3.7-1.7,3.7-3.7C154.4,6.5,152.7,4.9,150.6,4.9z"/>
</svg>
